DBRep_DrawableShape

CASCADE Topology V1, (c) Matra-Datavision
Locations 40
1
              1               0               0               0 
              0               1               0               0 
              0               0               1               0 
1
              1               0               0            4500 
              0               1               0               0 
              0               0               1               0 
1
              0              -0               1               0 
              1               0              -0               0 
             -0               1               0               0 
1
             -0               0               1               0 
              1              -0               0               0 
              0               1              -0               0 
1
              1               0               0      3.5527e-11 
              0               1               0     -2.2204e-11 
              0               0               1          -80000 
2  3 1 4 -1 5 1 2 1 0
2  2 -1 5 -1 4 1 3 -1 0
2  3 -1 0
1
              1               0               0               0 
              0               1               0               0 
              0               0               1               0 
2  9 -1 2 -1 5 -1 4 1 3 -1 0
2  2 -1 0
2  9 -1 2 -1 0
1
              0              -0               1               0 
              1               0              -0               0 
             -0               1               0               0 
1
             -0               0               1               0 
              1              -0               0               0 
              0               1              -0               0 
1
              1               0               0            3500 
              0               1               0               0 
              0               0               1               0 
2  13 1 14 -1 15 1 0
2  15 -1 14 1 13 -1 0
2  9 -1 15 -1 14 1 13 -1 0
2  4 -1 5 1 2 1 0
2  5 -1 4 1 3 -1 0
2  14 -1 15 1 0
2  14 1 13 -1 0
1
              1               0               0     -7.8382e-11 
              0               1               0      4.8989e-11 
              0               0               1          176500 
2  3 1 4 -1 5 1 23 1 2 1 0
2  2 -1 23 -1 5 -1 4 1 3 -1 0
2  9 -1 2 -1 23 -1 5 -1 4 1 3 -1 0
1
              1               0               0      -7.327e-12 
              0               1               0        4.58e-12 
              0               0               1           16500 
2  13 1 14 -1 27 1 15 1 0
2  15 -1 27 -1 14 1 13 -1 0
2  9 -1 15 -1 27 -1 14 1 13 -1 0
2  15 -1 0
2  9 -1 15 -1 0
2  3 1 4 -1 5 1 0
2  3 1 4 -1 5 1 23 1 0
2  23 -1 5 -1 4 1 3 -1 0
2  13 1 14 -1 0
2  13 1 14 -1 27 1 0
2  27 -1 14 1 13 -1 0
2  4 -1 5 1 23 1 2 1 0
2  14 -1 27 1 15 1 0
Curve2ds 0
Curves 52
1 -80000.000000000029 600.00000000000466 80000.000000000015 -3.1000000000000001e-16 0.95127837963214312 0.30833333333333307 
1 -80000 6307.6702777928958 1849.9999999999659 1 -4.4e-16 3.8999999999999998e-16 
1 -1.3323e-13 600.00000000000023 -1.9984000000000001e-13 -3.1000000000000001e-16 0.95127837963214312 0.30833333333333313 
1 -80000 600.00000000003558 -3.1419310000000002e-11 1 -4.4e-16 3.8999999999999998e-16 
1 -80000.000000000029 6307.6702777928658 81850.000000000015 -2.2e-16 1 -3.2999999999999999e-16 
1 -80000.000000000029 7307.6702777928667 81850.000000000015 -7.0000000000000003e-17 0.91158524248749628 -0.41111111111111137 
1 -80000.000000000044 91409.803868986637 79999.999999999985 2.2e-16 -1 3.2999999999999999e-16 
1 -80000.000000000029 91409.803868986652 -4.3655749999999997e-11 -3.2999999999999999e-16 -1.1e-16 1 
1 -79999.999999999985 -79400.000000000015 1.4551920000000001e-11 -2.2e-16 1 -3.2999999999999999e-16 
1 -80000.000000000015 -79400.000000000029 80000.000000000044 3.2999999999999999e-16 1.1e-16 -1 
1 -80000.000000000029 600.00000000000466 80000.000000000015 2.2e-16 -1 3.2999999999999999e-16 
1 -80000 7307.6702777928958 1849.9999999999652 1 -4.4e-16 3.8999999999999998e-16 
1 -2.01676e-12 6307.6702777928604 1849.9999999999989 -2.2e-16 1 -3.2999999999999999e-16 
1 -2.2388000000000001e-12 7307.6702777928613 1849.9999999999984 -7.0000000000000003e-17 0.91158524248749639 -0.41111111111111137 
1 -3.1996200000000001e-12 14409.803868986599 -4.7994300000000003e-12 2.2e-16 -1 3.2999999999999999e-16 
1 -2.20042e-12 14409.803868986599 -3000.0000000000064 -3.2999999999999999e-16 -1.1e-16 1 
1 1.53211e-12 -2400.0000000000005 -3000.0000000000005 -2.2e-16 1 -3.2999999999999999e-16 
1 5.3291e-13 -2400.0000000000009 7.9936000000000004e-13 3.2999999999999999e-16 1.1e-16 -1 
1 -1.3323e-13 600.00000000000023 -1.9984000000000001e-13 2.2e-16 -1 3.2999999999999999e-16 
1 -80000.000000000015 -79399.999999999985 1.298961e-11 1 -4.4e-16 3.8999999999999998e-16 
1 96500.000000000029 599.99999999999488 -96500.000000000015 2.2e-16 -1 3.2999999999999999e-16 
1 -80000 600.00000000003558 -3.1419310000000002e-11 1 -4.4e-16 3.8999999999999998e-16 
1 16500.000000000007 599.99999999999932 -16500.000000000004 2.2e-16 -1 3.2999999999999999e-16 
1 -5.3291e-13 -2400.0000000000005 1.3322699999999999e-12 1 -4.4e-16 3.8999999999999998e-16 
1 -80000 11409.803868986632 -3.7419960000000001e-11 1 -4.4e-16 3.8999999999999998e-16 
1 3.1996200000000001e-12 14409.803868986595 -7.9990500000000007e-12 1 -4.4e-16 3.8999999999999998e-16 
1 16500.000000000004 14409.803868986597 -16500.000000000007 2.2e-16 -1 3.2999999999999999e-16 
1 -80000 11409.803868986632 -3.7419960000000001e-11 1 -4.4e-16 3.8999999999999998e-16 
1 96500.000000000015 91409.803868986637 -96500.000000000044 2.2e-16 -1 3.2999999999999999e-16 
1 -79999.999999999985 91409.803868986637 -8.1828880000000003e-11 1 -4.4e-16 3.8999999999999998e-16 
1 -79999.999999999927 91409.803868986623 -80000.000000000102 1 -4.4e-16 3.8999999999999998e-16 
1 96500.000000000029 91409.803868986652 -176500.00000000006 -3.2999999999999999e-16 -1.1e-16 1 
1 -79999.999999999971 -79400.000000000015 -80000.000000000015 1 -4.4e-16 3.8999999999999998e-16 
1 96500.000000000073 -79400.000000000015 -176500 -2.2e-16 1 -3.2999999999999999e-16 
1 96500.000000000044 -79400.000000000029 -96499.999999999985 3.2999999999999999e-16 1.1e-16 -1 
1 4.8649500000000002e-12 14409.803868986597 -3000.0000000000086 1 -4.4e-16 3.8999999999999998e-16 
1 16500.000000000004 14409.803868986597 -19500.000000000011 -3.2999999999999999e-16 -1.1e-16 1 
1 1.1324300000000001e-12 -2400.0000000000014 -2999.9999999999991 1 -4.4e-16 3.8999999999999998e-16 
1 16500.000000000007 -2400.0000000000014 -19500.000000000004 -2.2e-16 1 -3.2999999999999999e-16 
1 16500.000000000007 -2400.0000000000018 -16500.000000000004 3.2999999999999999e-16 1.1e-16 -1 
1 96500.000000000029 599.99999999999488 -96500.000000000015 -3.1000000000000001e-16 0.95127837963214312 0.30833333333333307 
1 96500.000000000029 6307.6702777928558 -94650.000000000015 -2.2e-16 1 -3.2999999999999999e-16 
1 96500.000000000029 7307.6702777928567 -94650.000000000015 -7.0000000000000003e-17 0.91158524248749628 -0.41111111111111137 
1 16500.000000000007 599.99999999999932 -16500.000000000004 -3.1000000000000001e-16 0.95127837963214312 0.30833333333333313 
1 -80000 6307.6702777928958 1849.9999999999659 1 -4.4e-16 3.8999999999999998e-16 
1 16500.000000000004 6307.6702777928595 -14650.000000000005 -2.2e-16 1 -3.2999999999999999e-16 
1 16500.000000000004 7307.6702777928604 -14650.000000000005 -7.0000000000000003e-17 0.91158524248749639 -0.41111111111111137 
1 -80000 7307.6702777928958 1849.9999999999652 1 -4.4e-16 3.8999999999999998e-16 
1 -80000 6307.6702777928958 1849.9999999999659 1 -4.4e-16 3.8999999999999998e-16 
1 -80000 600.00000000003558 -3.1419310000000002e-11 1 -4.4e-16 3.8999999999999998e-16 
1 -80000 7307.6702777928958 1849.9999999999652 1 -4.4e-16 3.8999999999999998e-16 
1 -80000 11409.803868986632 -3.7419960000000001e-11 1 -4.4e-16 3.8999999999999998e-16 
Polygon3D 0
PolygonOnTriangulations 116
2 1 2 
p 715.266339781645 1 0 6000 
2 1 2 
p 715.266339781645 1 0 6000 
2 2 3 
p 715.266339781645 1 0 79000 
2 1 4 
p 715.266339781645 1 0 79000 
2 4 3 
p 715.266339781645 1 0 6000 
2 1 2 
p 715.266339781645 1 0 6000 
2 1 2 
p 715.266339781645 1 0 6000 
2 1 4 
p 715.266339781645 1 0 79000 
2 1 8 
p 715.266339781645 1 0 79000 
2 2 3 
p 715.266339781645 1 0 1000 
2 1 2 
p 715.266339781645 1 0 1000 
2 3 4 
p 715.266339781645 1 0 4500 
2 1 2 
p 715.266339781645 1 0 4500 
2 5 4 
p 715.266339781645 1 0 80000 
2 1 2 
p 715.266339781645 1 0 80000 
2 6 5 
p 715.266339781645 1 0 80000 
2 1 3 
p 715.266339781645 1 0 80000 
2 7 6 
p 715.266339781645 1 0 170809.803868987 
2 1 3 
p 715.266339781645 1 0 170809.803868987 
2 8 7 
p 715.266339781645 1 0 80000 
2 1 3 
p 715.266339781645 1 0 80000 
2 1 8 
p 715.266339781645 1 0 80000 
2 1 2 
p 715.266339781645 1 0 80000 
2 2 3 
p 715.266339781645 1 0 79000 
2 1 4 
p 715.266339781645 1 0 79000 
2 4 3 
p 715.266339781645 1 0 1000 
2 2 3 
p 715.266339781645 1 0 1000 
2 1 2 
p 715.266339781645 1 0 1000 
2 3 4 
p 715.266339781645 1 0 4500 
2 4 3 
p 715.266339781645 1 0 4500 
2 1 2 
p 715.266339781645 1 0 4500 
2 5 4 
p 715.266339781645 1 0 3000 
2 4 3 
p 715.266339781645 1 0 3000 
2 4 1 
p 715.266339781645 1 0 3000 
2 6 5 
p 715.266339781645 1 0 3000 
2 1 3 
p 715.266339781645 1 0 3000 
2 7 6 
p 715.266339781645 1 0 16809.8038689866 
2 1 3 
p 715.266339781645 1 0 16809.8038689866 
2 8 7 
p 715.266339781645 1 0 3000 
2 1 3 
p 715.266339781645 1 0 3000 
2 1 8 
p 715.266339781645 1 0 3000 
2 8 7 
p 715.266339781645 1 0 3000 
2 1 2 
p 715.266339781645 1 0 3000 
2 2 3 
p 715.266339781645 1 0 176500 
2 1 2 
p 715.266339781645 1 0 176500 
2 4 3 
p 715.266339781645 1 0 80000 
2 1 8 
p 715.266339781645 1 0 80000 
2 5 4 
p 715.266339781645 1 95500 176500 
2 1 4 
p 715.266339781645 1 95500 176500 
2 5 6 
p 715.266339781645 1 0 3000 
2 1 8 
p 715.266339781645 1 0 3000 
2 4 3 
p 715.266339781645 1 0 3000 
2 7 6 
p 715.266339781645 1 0 16500 
2 1 2 
p 715.266339781645 1 0 16500 
2 2 3 
p 715.266339781645 1 0 16500 
2 2 3 
p 715.266339781645 1 0 79000 
2 2 3 
p 715.266339781645 1 0 79000 
2 4 5 
p 715.266339781645 1 0 16500 
2 3 4 
p 715.266339781645 1 0 16500 
2 4 3 
p 715.266339781645 1 0 16500 
2 5 6 
p 715.266339781645 1 0 3000 
2 5 4 
p 715.266339781645 1 0 3000 
2 3 2 
p 715.266339781645 1 0 3000 
2 6 7 
p 715.266339781645 1 95500 176500 
2 2 3 
p 715.266339781645 1 95500 176500 
2 8 7 
p 715.266339781645 1 0 80000 
2 5 4 
p 715.266339781645 1 0 80000 
2 1 8 
p 715.266339781645 1 0 176500 
2 3 4 
p 715.266339781645 1 0 176500 
2 1 2 
p 715.266339781645 1 0 176500 
2 3 4 
p 715.266339781645 1 0 176500 
2 2 4 
p 715.266339781645 1 0 80000 
2 6 5 
p 715.266339781645 1 0 80000 
2 1 2 
p 715.266339781645 1 0 176500 
2 3 4 
p 715.266339781645 1 0 176500 
2 2 4 
p 715.266339781645 1 0 170809.803868987 
2 7 6 
p 715.266339781645 1 0 170809.803868987 
2 2 4 
p 715.266339781645 1 0 80000 
2 8 7 
p 715.266339781645 1 0 80000 
2 1 2 
p 715.266339781645 1 0 16500 
2 3 4 
p 715.266339781645 1 0 16500 
2 2 4 
p 715.266339781645 1 0 3000 
2 6 5 
p 715.266339781645 1 0 3000 
2 1 2 
p 715.266339781645 1 0 16500 
2 3 4 
p 715.266339781645 1 0 16500 
2 2 4 
p 715.266339781645 1 0 16809.8038689866 
2 7 6 
p 715.266339781645 1 0 16809.8038689866 
2 2 4 
p 715.266339781645 1 0 3000 
2 8 7 
p 715.266339781645 1 0 3000 
2 1 2 
p 715.266339781645 1 0 6000 
2 4 3 
p 715.266339781645 1 0 6000 
2 2 3 
p 715.266339781645 1 0 1000 
2 4 3 
p 715.266339781645 1 0 1000 
2 3 4 
p 715.266339781645 1 0 4500 
2 4 3 
p 715.266339781645 1 0 4500 
2 1 2 
p 715.266339781645 1 0 6000 
2 1 2 
p 715.266339781645 1 0 6000 
2 4 3 
p 715.266339781645 1 0 6000 
2 2 3 
p 715.266339781645 1 95500 176500 
2 1 4 
p 715.266339781645 1 95500 176500 
2 2 3 
p 715.266339781645 1 0 1000 
2 1 2 
p 715.266339781645 1 0 1000 
2 4 3 
p 715.266339781645 1 0 1000 
2 3 4 
p 715.266339781645 1 0 4500 
2 1 2 
p 715.266339781645 1 0 4500 
2 4 3 
p 715.266339781645 1 0 4500 
2 1 4 
p 715.266339781645 1 95500 176500 
2 2 3 
p 715.266339781645 1 95500 176500 
2 2 3 
p 715.266339781645 1 79000 95500 
2 1 4 
p 715.266339781645 1 79000 95500 
2 1 4 
p 715.266339781645 1 79000 95500 
2 1 4 
p 715.266339781645 1 79000 95500 
2 2 3 
p 715.266339781645 1 79000 95500 
2 1 4 
p 715.266339781645 1 79000 95500 
2 2 3 
p 715.266339781645 1 79000 95500 
2 1 2 
p 715.266339781645 1 79000 95500 
Surfaces 23
1 -80000 600.00000000003558 -3.1419310000000002e-11 -5.1e-16 -0.30833333333333285 0.95127837963214323 4.0000000000000003e-17 0.95127837963214323 0.30833333333333285 -1 1.9530113518528544e-16 -4.7281864027905965e-16 
1 40077.980451384421 -80000.000000000015 6006.0737724511509 -1.1e-16 -1 4.4e-16 -1 1.1000000000000005e-16 1.1e-16 -1.1000000000000005e-16 -4.4e-16 -1 
1 -80000 6307.6702777928958 1849.9999999999659 -3.8999999999999998e-16 5.6000000000000003e-16 1 2.2e-16 1 -5.5999999999999993e-16 -1 2.1999999999999978e-16 -3.9000000000000008e-16 
1 -1187.4756762036145 6.5918000000000002e-13 6019.5044787444549 -1.1e-16 -1 4.4e-16 -1 1.1000000000000005e-16 1.1e-16 -1.1000000000000005e-16 -4.4e-16 -1 
1 -80000 600.00000000003558 -3.1419310000000002e-11 3.8999999999999998e-16 -5.6000000000000003e-16 -1 -2.2e-16 -1 5.5999999999999993e-16 -1 2.1999999999999978e-16 -3.9000000000000008e-16 
1 -80000 7307.6702777928958 1849.9999999999652 -1.7e-16 0.4111111111111117 0.91158524248749628 4.2999999999999999e-16 0.91158524248749628 -0.4111111111111117 -1 3.2209276538073437e-16 -3.3174726900065233e-16 
1 -79999.999999999985 91409.803868986637 -8.1828880000000003e-11 3.8999999999999998e-16 -5.6000000000000003e-16 -1 -2.2e-16 -1 5.5999999999999993e-16 -1 2.1999999999999978e-16 -3.9000000000000008e-16 
1 -79999.999999999927 91409.803868986608 -80000.000000000116 -4.4e-16 -1 3.2999999999999999e-16 -5.6000000000000003e-16 3.3000000000000023e-16 1 -1 4.399999999999998e-16 -5.6000000000000013e-16 
1 -79999.999999999971 -79400.000000000015 -80000.000000000015 -3.8999999999999998e-16 5.6000000000000003e-16 1 2.2e-16 1 -5.5999999999999993e-16 -1 2.1999999999999978e-16 -3.9000000000000008e-16 
1 -80000.000000000015 -79399.999999999985 1.298961e-11 4.4e-16 1 -3.2999999999999999e-16 5.6000000000000003e-16 -3.3000000000000023e-16 -1 -1 4.399999999999998e-16 -5.6000000000000013e-16 
1 4.8649500000000002e-12 14409.803868986595 -3000.0000000000086 -4.4e-16 -1 3.2999999999999999e-16 -5.6000000000000003e-16 3.3000000000000023e-16 1 -1 4.399999999999998e-16 -5.6000000000000013e-16 
1 1.1324300000000001e-12 -2400.0000000000014 -2999.9999999999991 -3.8999999999999998e-16 5.6000000000000003e-16 1 2.2e-16 1 -5.5999999999999993e-16 -1 2.1999999999999978e-16 -3.9000000000000008e-16 
1 -5.3291e-13 -2400.0000000000005 1.3322699999999999e-12 4.4e-16 1 -3.2999999999999999e-16 5.6000000000000003e-16 -3.3000000000000023e-16 -1 -1 4.399999999999998e-16 -5.6000000000000013e-16 
1 -136422.01954861559 96500.000000000087 6006.0737724510627 -1.1e-16 -1 4.4e-16 -1 1.1000000000000005e-16 1.1e-16 -1.1000000000000005e-16 -4.4e-16 -1 
1 -80000 600.00000000003558 -3.1419310000000002e-11 -5.1e-16 -0.30833333333333285 0.95127837963214323 4.0000000000000003e-17 0.95127837963214323 0.30833333333333285 -1 1.9530113518528544e-16 -4.7281864027905965e-16 
1 -17687.475676203616 16500.000000000011 6019.5044787444467 -1.1e-16 -1 4.4e-16 -1 1.1000000000000005e-16 1.1e-16 -1.1000000000000005e-16 -4.4e-16 -1 
1 -80000 7307.6702777928958 1849.9999999999652 -1.7e-16 0.4111111111111117 0.91158524248749628 4.2999999999999999e-16 0.91158524248749628 -0.4111111111111117 -1 3.2209276538073437e-16 -3.3174726900065233e-16 
1 -80000 6307.6702777928958 1849.9999999999659 -3.8999999999999998e-16 5.6000000000000003e-16 1 2.2e-16 1 -5.5999999999999993e-16 -1 2.1999999999999978e-16 -3.9000000000000008e-16 
1 -80000 600.00000000003558 -3.1419310000000002e-11 -5.1e-16 -0.30833333333333285 0.95127837963214323 4.0000000000000003e-17 0.95127837963214323 0.30833333333333285 -1 1.9530113518528544e-16 -4.7281864027905965e-16 
1 -80000 6307.6702777928958 1849.9999999999659 -3.8999999999999998e-16 5.6000000000000003e-16 1 2.2e-16 1 -5.5999999999999993e-16 -1 2.1999999999999978e-16 -3.9000000000000008e-16 
1 -80000 7307.6702777928958 1849.9999999999652 -1.7e-16 0.4111111111111117 0.91158524248749628 4.2999999999999999e-16 0.91158524248749628 -0.4111111111111117 -1 3.2209276538073437e-16 -3.3174726900065233e-16 
1 -79999.999999999985 91409.803868986637 -8.1828880000000003e-11 3.8999999999999998e-16 -5.6000000000000003e-16 -1 -2.2e-16 -1 5.5999999999999993e-16 -1 2.1999999999999978e-16 -3.9000000000000008e-16 
1 -80000 600.00000000003558 -3.1419310000000002e-11 3.8999999999999998e-16 -5.6000000000000003e-16 -1 -2.2e-16 -1 5.5999999999999993e-16 -1 2.1999999999999978e-16 -3.9000000000000008e-16 
Triangulations 23
4 2 1 2.27373675443232e-12
-75500 600.000000000044 -3.1486e-11 -75500 6307.6702777929 1849.99999999997 3500 6307.67027779286 1850 3500 600 -4e-13 8.41282599139959e-12 0 6000.00000000001 0 5999.99999999998 -79000 -2.1032064978499e-11 -79000 2 4 3 2 1 4 
8 6 1 1.57337399138762e-11
80000 -80000 600.000000000067 81850 -80000 6307.67027779293 81850 -80000 7307.67027779293 80000 -80000 11409.8038689867 79999.9999999999 -80000 91409.8038689867 -1.01863406598568e-10 -80000 91409.8038689867 1.45519152283669e-11 -80000 -79400 80000 -80000.0000000001 -79399.9999999999 -39922.0195486156 5406.07377245108 -41772.0195486156 -301.596505341775 -41772.0195486156 -1301.59650534177 -39922.0195486155 -5403.73009653551 -39922.0195486155 -85403.7300965355 40077.9804513845 -85403.7300965355 40077.9804513844 85406.0737724511 -39922.0195486156 85406.0737724511 6 4 5 2 3 4 1 2 4 7 8 1 7 4 6 7 1 4 
4 2 1 7.95807864051314e-13
-75500 6307.6702777929 1849.99999999997 -75500 7307.6702777929 1849.99999999996 3500 7307.67027779286 1850 3500 6307.67027779286 1850 9.09494701772928e-12 0 1000.00000000001 0 999.999999999981 -79000 -1.90993887372315e-11 -79000 2 4 3 2 1 4 
8 6 1 2.81245704101206e-12
3500 600 -4e-13 3500 6307.67027779286 1850 3500 7307.67027779286 1850 3500 11409.8038689866 -7.593e-12 3500.00000000001 14409.8038689866 -9.599e-12 3500.00000000001 14409.8038689866 -3000.00000000001 3500 -2400 -3000 3500 -2400 1.599e-12 -1187.47567620361 5419.50447874445 -3037.47567620361 -288.165799048405 -3037.47567620361 -1288.1657990484 -1187.47567620361 -5390.29939024214 -1187.4756762036 -8390.29939024214 1812.5243237964 -8390.29939024214 1812.52432379638 8419.50447874446 -1187.47567620362 8419.50447874445 6 4 5 2 3 4 1 2 4 7 8 1 7 4 6 7 1 4 
4 2 1 9.18333536299287e-13
3500 600 -4e-13 3500 6307.67027779286 1850 20000 6307.67027779285 1850 20000 599.999999999991 6.012e-12 -2.1032064978499e-11 -79000 5999.99999999998 -79000 5999.99999999997 -95500 -2.71711542154662e-11 -95500 1 4 3 2 1 3 
8 6 1 1.17447554433345e-11
-75500 600.000000000044 -3.1486e-11 -75500 -79400 2.1805e-11 101000 -79400.0000000001 9.0389e-11 101000 599.999999999947 3.7098e-11 20000 599.999999999991 6.012e-12 20000 -2400.00000000001 8.01e-12 3500 -2400 1.599e-12 3500 600 -4e-13 -8.86757334228605e-12 0 80000 0 80000.0000000001 -176500 5.01358954352327e-11 -176500 2.35331754083745e-11 -95500 3000.00000000002 -95500 3000.00000000002 -79000 1.80762071977369e-11 -79000 6 4 3 6 5 4 1 8 7 2 7 6 2 6 3 2 1 7 
4 2 1 2.27373675443232e-12
-75500 7307.6702777929 1849.99999999996 -75500 11409.8038689866 -3.8687e-11 3500 11409.8038689866 -7.593e-12 3500 7307.67027779286 1850 9.09494701772928e-12 0 4500.00000000001 0 4499.99999999999 -79000 -1.09139364212751e-11 -79000 1 4 3 2 1 3 
8 6 1 1.2418099934452e-11
-75500 91409.8038689867 -9.1977e-11 -75500 11409.8038689866 -3.8687e-11 3500 11409.8038689866 -7.593e-12 3500.00000000001 14409.8038689866 -9.599e-12 20000 14409.8038689866 -3.187e-12 20000 11409.8038689866 -1.182e-12 101000 11409.8038689865 2.9897e-11 101000 91409.8038689865 -2.3393e-11 -1.45519152283669e-11 0 80000 0 80000 -79000 77000 -79000 77000 -95500 80000 -95500 80000.0000000001 -176500 5.82076609134674e-11 -176500 5 8 7 6 5 7 1 5 4 1 8 5 2 4 3 2 1 4 
4 2 1 1.45519152283669e-11
-79999.9999999999 91409.8038689866 -80000.0000000001 96500.0000000001 91409.8038689865 -80000 -80000 91409.8038689867 -9.1977e-11 96500 91409.8038689865 -2.3393e-11 1.45519152283669e-11 0 -1.45519152283669e-11 -176500 80000 0 80000 -176500 1 2 4 3 1 4 
4 2 1 2.42531920472781e-11
-80000 -79400 -80000 96500 -79400.0000000001 -79999.9999999999 -79999.9999999999 91409.8038689866 -80000.0000000001 96500.0000000001 91409.8038689865 -80000 0 0 -7.27595761418343e-11 -176500 170809.803868987 0 170809.803868987 -176500 1 2 4 3 1 4 
4 2 1 9.70127681891125e-12
-80000 -79400 2.1805e-11 96500 -79400.0000000001 9.0389e-11 -80000 -79400 -80000 96500 -79400.0000000001 -79999.9999999999 -8.81539000000002e-12 0 2.144061e-11 -176500 80000 0 80000 -176500 3 1 2 3 2 4 
4 2 1 6.82121026329697e-13
3500 6307.67027779286 1850 3500 7307.67027779286 1850 20000 7307.67027779285 1850 20000 6307.67027779285 1850 -1.90993887372315e-11 -79000 999.999999999981 -79000 999.999999999975 -95500 -2.45563569478691e-11 -95500 2 4 3 2 1 4 
4 2 1 2.77835838684267e-12
3500 7307.67027779286 1850 3500 11409.8038689866 -7.593e-12 20000 11409.8038689866 -1.182e-12 20000 7307.67027779285 1850 -1.09139364212751e-11 -79000 4499.99999999999 -79000 4499.99999999999 -95500 -1.54614099301398e-11 -95500 1 4 3 2 1 3 
4 2 1 4.58927951590745e-12
3500 11409.8038689866 -7.593e-12 20000 11409.8038689866 -1.182e-12 20000 14409.8038689866 -3.187e-12 3500.00000000001 14409.8038689866 -9.599e-12 80000 -79000 80000 -95500 77000 -95500 77000 -79000 1 3 2 1 4 3 
4 2 1 1.2126596023639e-12
3500.00000000001 14409.8038689866 -3000.00000000001 20000 14409.8038689866 -3000 3500.00000000001 14409.8038689866 -9.599e-12 20000 14409.8038689866 -3.187e-12 -1.81898940354586e-12 0 -4.54747350886464e-12 -16500 3000 0 3000 -16500 1 2 4 3 1 4 
4 2 1 2.03369197834017e-12
9.09494701772928e-13 -2400 -3000 16500 -2400.00000000001 -2999.99999999999 6.3664629124105e-12 14409.8038689866 -3000.00000000001 16500 14409.8038689866 -3000 -4.54747350886464e-13 0 -5.91171556152403e-12 -16500 16809.8038689866 0 16809.8038689866 -16500 4 1 2 3 1 4 
4 2 1 1.51582450295488e-12
3500 -2400 1.599e-12 20000 -2400.00000000001 8.01e-12 3500 -2400 -3000 20000 -2400.00000000001 -2999.99999999999 -2.6673e-13 0 2.56227e-12 -16500 3000 0 3000 -16500 3 1 2 3 2 4 
4 2 1 4.06309999999984e-13
3500 600 -4e-13 3500 -2400 1.599e-12 20000 -2400.00000000001 8.01e-12 20000 599.999999999991 6.012e-12 1.80762071977369e-11 -79000 3000.00000000002 -79000 3000.00000000002 -95500 2.35331754083745e-11 -95500 2 4 3 2 1 4 
8 6 1 4.70780201203952e-11
-96500 96500 599.99999999992 -94650 96500 6307.67027779278 -94650 96500 7307.67027779278 -96500 96500 11409.8038689865 -96500 96500.0000000001 91409.8038689865 -176500 96500.0000000001 91409.8038689865 -176500 96500.0000000001 -79400.0000000001 -96499.9999999999 96500 -79400.0000000001 -39922.0195486156 5406.07377245114 -41772.0195486156 -301.596505341717 -41772.0195486156 -1301.59650534172 -39922.0195486156 -5403.73009653545 -39922.0195486155 -85403.7300965355 40077.9804513844 -85403.7300965354 40077.9804513843 85406.0737724512 -39922.0195486157 85406.0737724511 6 4 5 2 3 4 1 2 4 7 8 1 7 4 6 7 1 4 
4 2 1 1.70530256582424e-12
20000 599.999999999991 6.012e-12 20000 6307.67027779285 1850 101000 6307.67027779281 1850.00000000003 101000 599.999999999947 3.7098e-11 -2.71711542154662e-11 -95500 5999.99999999997 -95500 5999.99999999994 -176500 -5.65023583476432e-11 -176500 1 4 3 2 1 3 
8 6 1 4.83403064787792e-12
20000 599.999999999991 6.012e-12 20000 6307.67027779285 1850 20000 7307.67027779285 1850 20000 11409.8038689866 -1.182e-12 20000 14409.8038689866 -3.187e-12 20000 14409.8038689866 -3000 20000 -2400.00000000001 -2999.99999999999 20000 -2400.00000000001 8.01e-12 -1187.47567620362 5419.50447874446 -3037.47567620362 -288.165799048399 -3037.47567620362 -1288.1657990484 -1187.47567620362 -5390.29939024213 -1187.47567620361 -8390.29939024213 1812.52432379639 -8390.29939024214 1812.52432379638 8419.50447874446 -1187.47567620362 8419.50447874446 4 5 6 2 3 4 1 2 4 7 8 1 7 4 6 7 1 4 
4 2 1 3.98366150752568e-12
20000 7307.67027779285 1850 20000 11409.8038689866 -1.182e-12 101000 11409.8038689865 2.9897e-11 101000 7307.67027779281 1850.00000000003 -1.54614099301398e-11 -95500 4499.99999999999 -95500 4499.99999999997 -176500 -3.27418092638254e-11 -176500 2 4 3 2 1 4 
4 2 1 9.85285926920671e-13
20000 6307.67027779285 1850 20000 7307.67027779285 1850 101000 7307.67027779281 1850.00000000003 101000 6307.67027779281 1850.00000000003 -2.45563569478691e-11 -95500 999.999999999975 -95500 999.999999999949 -176500 -5.0931703299284e-11 -176500 2 4 3 2 1 4 

TShapes 136
Ve
1e-07
-75500 600.000000000044 -3.1486e-11
0 0

0101101
*
Ve
1e-07
-75500 6307.6702777929 1849.99999999997
0 0

0101101
*
Ed
 1e-07 1 1 0
1  1 0 0 6000
6  1 1 7
6  2 2 8
0

0101000
+136 10 -135 10 *
Ve
2.12133034355964e-07
3500 6307.67027779286 1850
0 0

0101101
*
Ed
 1e-07 1 1 0
1  2 0 0 79000
6  3 1 11
6  4 3 11
0

0101000
+135 12 -133 12 *
Ve
2.12133034355964e-07
3500 600 -4e-13
0 0

0101101
*
Ed
 1.00001833145177e-07 1 1 0
1  3 0 0 6000
6  5 1 17
6  6 4 17
6  7 5 17
0

0101000
+131 18 -133 18 *
Ed
 1e-07 1 1 0
1  4 0 0 79000
6  8 1 11
6  9 6 11
0

0101000
+136 12 -131 12 *
Wi

0101100
-134 6 -132 2 +130 16 +129 2 *
Fa
0  1e-07 1 2
2  1
0101000
+128 0 *
Ve
1e-07
-75500 7307.6702777929 1849.99999999996
0 0

0101101
*
Ed
 1e-07 1 1 0
1  5 0 0 1000
6  10 2 8
6  11 3 7
0

0101000
+135 10 -126 10 *
Ve
1.00000909e-07
-75500 11409.8038689866 -3.8687e-11
0 0

0101101
*
Ed
 1e-07 1 1 0
1  6 0 0 4500
6  12 2 8
6  13 7 7
0

0101000
+126 10 -124 10 *
Ve
1e-07
-75500 91409.8038689867 -9.1977e-11
0 0

0101101
*
Ed
 1e-07 1 1 0
1  7 0 0 80000
6  14 2 8
6  15 8 7
0

0101000
+122 10 -124 10 *
Ve
1.00007276e-07
-75499.9999999999 91409.8038689866 -80000.0000000001
0 0

0101101
*
Ed
 1e-07 1 1 0
1  8 0 0 80000
6  16 2 8
6  17 9 20
0

0101000
+120 10 -122 10 *
Ve
1e-07
-75500 -79400 -80000
0 0

0101101
*
Ed
 1e-07 1 1 0
1  9 0 0 170809.803868987
6  18 2 8
6  19 10 20
0

0101000
+118 10 -120 10 *
Ve
1e-07
-75500 -79400 2.1805e-11
0 0

0101101
*
Ed
 1e-07 1 1 0
1  10 0 0 80000
6  20 2 8
6  21 11 20
0

0101000
+116 10 -118 10 *
Ed
 1e-07 1 1 0
1  11 0 0 80000
6  22 2 8
6  23 6 7
0

0101000
+136 10 -116 10 *
Wi

0101100
+134 0 +125 0 +123 0 -121 0 -119 0 -117 0 -115 0 -114 0 *
Fa
0  1e-07 2 0
2  2
0101000
+113 3 *
Ve
2.12133034355964e-07
3500 7307.67027779286 1850
0 0

0101101
*
Ed
 1e-07 1 1 0
1  12 0 0 79000
6  24 3 11
6  25 7 11
0

0101000
+126 12 -111 12 *
Ed
 1.0000250111043e-07 1 1 0
1  13 0 0 1000
6  26 3 17
6  27 4 17
6  28 12 17
0

0101000
+133 18 -111 18 *
Wi

0101100
-125 6 -110 2 +109 16 +132 2 *
Fa
0  1e-07 3 2
2  3
0101000
+108 0 *
Ve
2.12133034355964e-07
3500 11409.8038689866 -7.593e-12
0 0

0101101
*
Ed
 1.00004349264531e-07 1 1 0
1  14 0 0 4500
6  29 4 17
6  30 7 17
6  31 13 17
0

0101000
+111 18 -106 18 *
Ve
2.12133034355964e-07
3500.00000000001 14409.8038689866 -9.599e-12
0 0

0101101
*
Ed
 1.0000304195e-07 1 1 0
1  15 0 0 3000
6  32 4 17
6  33 8 17
6  34 14 17
0

0101000
+104 18 -106 18 *
Ve
1.00000909e-07
3500.00000000001 14409.8038689866 -3000.00000000001
0 0

0101101
*
Ed
 1e-07 1 1 0
1  16 0 0 3000
6  35 4 17
6  36 15 17
0

0101000
+102 18 -104 18 *
Ve
1e-07
3500 -2400 -3000
0 0

0101101
*
Ed
 1e-07 1 1 0
1  17 0 0 16809.8038689866
6  37 4 17
6  38 16 22
0

0101000
+100 18 -102 18 *
Ve
2.12133034355964e-07
3500 -2400 1.599e-12
0 0

0101101
*
Ed
 1e-07 1 1 0
1  18 0 0 3000
6  39 4 17
6  40 17 17
0

0101000
+98 18 -100 18 *
Ed
 1.0000035197e-07 1 1 0
1  19 0 0 3000
6  41 4 17
6  42 6 17
6  43 18 17
0

0101000
+131 18 -98 18 *
Wi

0101100
+130 16 +109 16 +105 16 -103 16 -101 16 -99 16 -97 16 -96 16 *
Fa
0  1e-07 4 21
2  4
0101000
+95 0 *
Ve
1e-07
101000 -79400.0000000001 9.0389e-11
0 0

0101101
*
Ed
 1e-07 1 1 0
1  20 0 0 176500
6  44 6 11
6  45 11 0
0

0101000
+116 12 -93 12 *
Ve
1e-07
101000 599.999999999947 3.7098e-11
0 0

0101101
*
Ed
 1e-07 1 1 0
1  21 0 0 80000
6  46 6 25
6  47 19 8
0

0101000
+91 26 -93 26 *
Ve
2.12133034355964e-07
20000 599.999999999991 6.012e-12
0 0

0101101
*
Ed
 1e-07 1 1 0
1  22 0 95500 176500
6  48 6 11
6  49 20 11
0

0101000
+89 12 -91 12 *
Ve
2.12133034355964e-07
20000 -2400.00000000001 8.01e-12
0 0

0101101
*
Ed
 1.00010096168807e-07 1 1 0
1  23 0 0 3000
6  50 6 29
6  51 21 29
6  52 18 29
0

0101000
+89 30 -87 30 *
Ed
 1.0000026158e-07 1 1 0
1  24 0 0 16500
6  53 6 31
6  54 17 31
6  55 18 31
0

0101000
+98 32 -87 32 *
Wi

0101100
-114 6 -92 2 +90 24 +88 2 -86 28 +85 15 +96 16 +129 2 *
Fa
0  1e-07 5 2
2  6
0101000
+84 0 *
Ed
 1.00000909e-07 1 1 0
1  25 0 0 79000
6  56 7 11
6  57 8 11
0

0101000
+124 12 -106 12 *
Wi

0101100
-123 6 -82 2 +105 16 +110 2 *
Fa
0  1e-07 6 2
2  7
0101000
+81 0 *
Ve
2.12133034355964e-07
20000 14409.8038689866 -3.187e-12
0 0

0101101
*
Ed
 1.0000010017e-07 1 1 0
1  26 0 0 16500
6  58 8 31
6  59 15 31
6  60 14 31
0

0101000
+104 32 -79 32 *
Ve
2.12133034355964e-07
20000 11409.8038689866 -1.182e-12
0 0

0101101
*
Ed
 1.00006444577614e-07 1 1 0
1  27 0 0 3000
6  61 8 29
6  62 21 29
6  63 14 29
0

0101000
+79 30 -77 30 *
Ve
1.00000909e-07
101000 11409.8038689865 2.9897e-11
0 0

0101101
*
Ed
 1.00000909e-07 1 1 0
1  28 0 95500 176500
6  64 8 11
6  65 22 11
0

0101000
+77 12 -75 12 *
Ve
1e-07
101000 91409.8038689865 -2.3393e-11
0 0

0101101
*
Ed
 1e-07 1 1 0
1  29 0 0 80000
6  66 8 25
6  67 19 8
0

0101000
+73 26 -75 26 *
Ed
 1e-07 1 1 0
1  30 0 0 176500
6  68 8 11
6  69 9 0
0

0101000
+122 12 -73 12 *
Wi

0101100
-121 6 -82 2 +103 16 -78 15 -76 28 -74 2 +72 24 +71 2 *
Fa
0  1e-07 7 2
2  8
0101000
+70 0 *
Ve
1.00007276e-07
101000 91409.8038689865 -80000
0 0

0101101
*
Ed
 1.00007276e-07 1 1 0
1  31 0 0 176500
6  70 9 0
6  71 10 0
0

0101000
+120 12 -68 12 *
Ed
 1e-07 1 1 0
1  32 0 0 80000
6  72 9 35
6  73 19 8
0

0101000
+68 26 -73 26 *
Wi

0101100
+67 0 -71 0 -119 33 +66 34 *
Fa
0  1e-07 8 0
2  9
0101000
+65 0 *
Ve
1e-07
101000 -79400.0000000001 -79999.9999999999
0 0

0101101
*
Ed
 1e-07 1 1 0
1  33 0 0 176500
6  74 10 0
6  75 11 0
0

0101000
+118 12 -63 12 *
Ed
 1e-07 1 1 0
1  34 0 0 170809.803868987
6  76 10 35
6  77 19 8
0

0101000
+63 26 -68 26 *
Wi

0101100
+62 0 -67 0 -117 33 +61 34 *
Fa
0  1e-07 9 0
2  10
0101000
+60 0 *
Ed
 1e-07 1 1 0
1  35 0 0 80000
6  78 11 35
6  79 19 8
0

0101000
+93 26 -63 26 *
Wi

0101100
+92 0 -62 0 -115 33 +58 34 *
Fa
0  1e-07 10 0
2  11
0101000
+57 0 *
Ve
1.00000909e-07
20000 14409.8038689866 -3000
0 0

0101101
*
Ed
 1.00000909e-07 1 1 0
1  36 0 0 16500
6  80 15 31
6  81 16 0
0

0101000
+102 32 -55 32 *
Ed
 1e-07 1 1 0
1  37 0 0 3000
6  82 15 29
6  83 21 29
0

0101000
+55 30 -79 30 *
Wi

0101100
+54 15 -78 15 -101 16 +53 28 *
Fa
0  1e-07 11 15
2  15
0101000
+52 0 *
Ve
1e-07
20000 -2400.00000000001 -2999.99999999999
0 0

0101101
*
Ed
 1e-07 1 1 0
1  38 0 0 16500
6  84 16 0
6  85 17 31
0

0101000
+100 32 -50 32 *
Ed
 1e-07 1 1 0
1  39 0 0 16809.8038689866
6  86 16 38
6  87 21 29
0

0101000
+50 30 -55 30 *
Wi

0101100
+49 0 -54 0 -99 36 +48 37 *
Fa
0  1e-07 12 0
2  16
0101000
+47 0 *
Ed
 1e-07 1 1 0
1  40 0 0 3000
6  88 17 29
6  89 21 29
0

0101000
+87 30 -50 30 *
Wi

0101100
+85 15 -49 15 -97 16 +45 28 *
Fa
0  1e-07 13 15
2  17
0101000
+44 0 *
Ve
1e-07
101000 6307.67027779281 1850.00000000003
0 0

0101101
*
Ed
 1e-07 1 1 0
1  41 0 0 6000
6  90 19 8
6  91 20 25
0

0101000
+91 26 -42 26 *
Ve
1e-07
101000 7307.67027779281 1850.00000000003
0 0

0101101
*
Ed
 1e-07 1 1 0
1  42 0 0 1000
6  92 19 8
6  93 23 25
0

0101000
+42 26 -40 26 *
Ed
 1e-07 1 1 0
1  43 0 0 4500
6  94 19 8
6  95 22 25
0

0101000
+40 26 -75 26 *
Wi

0101100
+41 0 +39 0 +38 0 -72 0 -66 0 -61 0 -58 0 -90 0 *
Fa
0  1e-07 14 0
2  19
0101000
+37 3 *
Ve
2.12133034355964e-07
20000 6307.67027779285 1850
0 0

0101101
*
Ed
 1.0001241221966e-07 1 1 0
1  44 0 0 6000
6  96 20 29
6  97 21 29
6  98 5 29
0

0101000
+89 30 -35 30 *
Ed
 1e-07 1 1 0
1  45 0 95500 176500
6  99 20 11
6  100 23 11
0

0101000
+35 12 -42 12 *
Wi

0101100
-34 28 -33 2 +41 24 +88 2 *
Fa
0  1e-07 15 2
2  20
0101000
+32 0 *
Ve
2.12133034355964e-07
20000 7307.67027779285 1850
0 0

0101101
*
Ed
 1.00008640199667e-07 1 1 0
1  46 0 0 1000
6  101 21 29
6  102 23 29
6  103 12 29
0

0101000
+35 30 -30 30 *
Ed
 1.00002033691978e-07 1 1 0
1  47 0 0 4500
6  104 21 29
6  105 22 29
6  106 13 29
0

0101000
+30 30 -77 30 *
Wi

0101100
+34 28 +29 28 +28 28 -76 28 -53 28 -48 28 -45 28 -86 28 *
Fa
0  1e-07 16 40
2  21
0101000
+27 0 *
Ed
 1e-07 1 1 0
1  48 0 95500 176500
6  107 22 11
6  108 23 11
0

0101000
+30 12 -40 12 *
Wi

0101100
-28 28 -74 2 +38 24 +25 2 *
Fa
0  1e-07 17 2
2  22
0101000
+24 0 *
Wi

0101100
-29 28 -25 2 +39 24 +33 2 *
Fa
0  1e-07 18 2
2  23
0101000
+22 0 *
Sh

0101100
+127 0 +112 19 +107 0 -94 0 -83 0 +80 0 -69 0 -64 2 -59 2 -56 2 
+51 0 +46 15 +43 0 -36 39 +31 0 +26 0 +23 0 +21 0 *
So

0100000
+20 0 *
Ed
 1.00001874971361e-07 1 1 0
1  49 0 79000 95500
6  109 5 11
6  110 12 11
0

0101000
+133 12 -35 12 *
Ed
 1.00000842388683e-07 1 1 0
1  50 0 79000 95500
6  111 5 11
6  112 18 11
0

0101000
+131 12 -89 12 *
Wi

0101100
-130 16 -18 2 +34 28 +17 2 *
Fa
0  1e-07 19 2
2  5
0101000
+16 0 *
Ed
 1.00001874971361e-07 1 1 0
1  51 0 79000 95500
6  113 12 11
6  114 13 11
0

0101000
+111 12 -30 12 *
Wi

0101100
-109 16 -14 2 +29 28 +18 2 *
Fa
0  1e-07 20 2
2  12
0101000
+13 0 *
Ed
 1.00003655988951e-07 1 1 0
1  52 0 79000 95500
6  115 13 11
6  116 14 11
0

0101000
+106 12 -77 12 *
Wi

0101100
-105 16 -11 2 +28 28 +14 2 *
Fa
0  1e-07 21 2
2  13
0101000
+10 0 *
Wi

0101100
-11 2 +76 28 +78 15 -103 16 *
Fa
0  1e-07 22 2
2  14
0101000
+8 0 *
Wi

0101100
-96 16 -85 15 +86 28 +17 2 *
Fa
0  1e-07 23 2
2  18
0101000
+6 0 *
Sh

0101100
+15 0 +12 0 +9 0 -7 0 -51 0 -46 15 -43 0 -5 0 +94 0 -26 0 
*
So

0100000
+4 0 *
CS

0101000
+19 0 +3 0 *
Co

1100000
+2 1 *

+1 0 