DBRep_DrawableShape

CASCADE Topology V1, (c) Matra-Datavision
Locations 42
1
              1               0               0               0 
              0               1               0               0 
              0               0               1               0 
1
              1               0               0            7500 
              0               1               0           -1500 
              0               0               1           -2300 
1
              1               0               0               0 
              0               1               0               0 
              0               0               1               0 
2  3 -1 2 -1 0
1
              1               0               0            4500 
              0               1               0               0 
              0               0               1               0 
1
              0              -0               1               0 
              1               0              -0               0 
             -0               1               0               0 
1
             -0               0               1               0 
              1              -0               0               0 
              0               1              -0               0 
1
              1               0               0      3.5527e-11 
              0               1               0     -2.2204e-11 
              0               0               1          -80000 
2  6 1 7 -1 8 1 5 1 0
2  5 -1 8 -1 7 1 6 -1 0
2  6 -1 0
2  3 -1 5 -1 8 -1 7 1 6 -1 0
2  5 -1 0
2  3 -1 5 -1 0
1
              0              -0               1               0 
              1               0              -0               0 
             -0               1               0               0 
1
             -0               0               1               0 
              1              -0               0               0 
              0               1              -0               0 
1
              1               0               0            3500 
              0               1               0               0 
              0               0               1               0 
2  15 1 16 -1 17 1 0
2  17 -1 16 1 15 -1 0
2  3 -1 17 -1 16 1 15 -1 0
2  7 -1 8 1 5 1 0
2  8 -1 7 1 6 -1 0
2  16 -1 17 1 0
2  16 1 15 -1 0
1
              1               0               0     -7.8382e-11 
              0               1               0      4.8989e-11 
              0               0               1          176500 
2  6 1 7 -1 8 1 25 1 5 1 0
2  5 -1 25 -1 8 -1 7 1 6 -1 0
2  3 -1 5 -1 25 -1 8 -1 7 1 6 -1 0
1
              1               0               0      -7.327e-12 
              0               1               0        4.58e-12 
              0               0               1           16500 
2  15 1 16 -1 29 1 17 1 0
2  17 -1 29 -1 16 1 15 -1 0
2  3 -1 17 -1 29 -1 16 1 15 -1 0
2  17 -1 0
2  3 -1 17 -1 0
2  6 1 7 -1 8 1 0
2  6 1 7 -1 8 1 25 1 0
2  25 -1 8 -1 7 1 6 -1 0
2  15 1 16 -1 0
2  15 1 16 -1 29 1 0
2  29 -1 16 1 15 -1 0
2  7 -1 8 1 25 1 5 1 0
2  16 -1 29 1 17 1 0
Curve2ds 0
Curves 64
1 0 0 0 0 0 1 
1 0 0 2000 0 1 0 
1 0 15000 0 0 0 1 
1 0 0 0 0 1 0 
1 8000 0 0 0 0 1 
1 8000 0 2000 0 1 0 
1 8000 15000 0 0 0 1 
1 8000 0 0 0 1 0 
1 0 0 0 1 0 0 
1 0 0 2000 1 0 0 
1 0 15000 0 1 0 0 
1 0 15000 2000 1 0 0 
1 -80000.000000000029 600.00000000000466 80000.000000000015 -3.1000000000000001e-16 0.95127837963214312 0.30833333333333307 
1 -80000 6307.6702777928958 1849.9999999999659 1 -4.4e-16 3.8999999999999998e-16 
1 -1.3323e-13 600.00000000000023 -1.9984000000000001e-13 -3.1000000000000001e-16 0.95127837963214312 0.30833333333333313 
1 -80000 600.00000000003558 -3.1419310000000002e-11 1 -4.4e-16 3.8999999999999998e-16 
1 -80000.000000000029 6307.6702777928658 81850.000000000015 -2.2e-16 1 -3.2999999999999999e-16 
1 -80000.000000000029 7307.6702777928667 81850.000000000015 -7.0000000000000003e-17 0.91158524248749628 -0.41111111111111137 
1 -80000.000000000044 91409.803868986637 79999.999999999985 2.2e-16 -1 3.2999999999999999e-16 
1 -80000.000000000029 91409.803868986652 -4.3655749999999997e-11 -3.2999999999999999e-16 -1.1e-16 1 
1 -79999.999999999985 -79400.000000000015 1.4551920000000001e-11 -2.2e-16 1 -3.2999999999999999e-16 
1 -80000.000000000015 -79400.000000000029 80000.000000000044 3.2999999999999999e-16 1.1e-16 -1 
1 -80000.000000000029 600.00000000000466 80000.000000000015 2.2e-16 -1 3.2999999999999999e-16 
1 -80000 7307.6702777928958 1849.9999999999652 1 -4.4e-16 3.8999999999999998e-16 
1 -2.01676e-12 6307.6702777928604 1849.9999999999989 -2.2e-16 1 -3.2999999999999999e-16 
1 -2.2388000000000001e-12 7307.6702777928613 1849.9999999999984 -7.0000000000000003e-17 0.91158524248749639 -0.41111111111111137 
1 -3.1996200000000001e-12 14409.803868986599 -4.7994300000000003e-12 2.2e-16 -1 3.2999999999999999e-16 
1 -2.20042e-12 14409.803868986599 -3000.0000000000064 -3.2999999999999999e-16 -1.1e-16 1 
1 1.53211e-12 -2400.0000000000005 -3000.0000000000005 -2.2e-16 1 -3.2999999999999999e-16 
1 5.3291e-13 -2400.0000000000009 7.9936000000000004e-13 3.2999999999999999e-16 1.1e-16 -1 
1 -1.3323e-13 600.00000000000023 -1.9984000000000001e-13 2.2e-16 -1 3.2999999999999999e-16 
1 -80000.000000000015 -79399.999999999985 1.298961e-11 1 -4.4e-16 3.8999999999999998e-16 
1 96500.000000000029 599.99999999999488 -96500.000000000015 2.2e-16 -1 3.2999999999999999e-16 
1 -80000 600.00000000003558 -3.1419310000000002e-11 1 -4.4e-16 3.8999999999999998e-16 
1 16500.000000000007 599.99999999999932 -16500.000000000004 2.2e-16 -1 3.2999999999999999e-16 
1 -5.3291e-13 -2400.0000000000005 1.3322699999999999e-12 1 -4.4e-16 3.8999999999999998e-16 
1 -80000 11409.803868986632 -3.7419960000000001e-11 1 -4.4e-16 3.8999999999999998e-16 
1 3.1996200000000001e-12 14409.803868986595 -7.9990500000000007e-12 1 -4.4e-16 3.8999999999999998e-16 
1 16500.000000000004 14409.803868986597 -16500.000000000007 2.2e-16 -1 3.2999999999999999e-16 
1 -80000 11409.803868986632 -3.7419960000000001e-11 1 -4.4e-16 3.8999999999999998e-16 
1 96500.000000000015 91409.803868986637 -96500.000000000044 2.2e-16 -1 3.2999999999999999e-16 
1 -79999.999999999985 91409.803868986637 -8.1828880000000003e-11 1 -4.4e-16 3.8999999999999998e-16 
1 -79999.999999999927 91409.803868986623 -80000.000000000102 1 -4.4e-16 3.8999999999999998e-16 
1 96500.000000000029 91409.803868986652 -176500.00000000006 -3.2999999999999999e-16 -1.1e-16 1 
1 -79999.999999999971 -79400.000000000015 -80000.000000000015 1 -4.4e-16 3.8999999999999998e-16 
1 96500.000000000073 -79400.000000000015 -176500 -2.2e-16 1 -3.2999999999999999e-16 
1 96500.000000000044 -79400.000000000029 -96499.999999999985 3.2999999999999999e-16 1.1e-16 -1 
1 4.8649500000000002e-12 14409.803868986597 -3000.0000000000086 1 -4.4e-16 3.8999999999999998e-16 
1 16500.000000000004 14409.803868986597 -19500.000000000011 -3.2999999999999999e-16 -1.1e-16 1 
1 1.1324300000000001e-12 -2400.0000000000014 -2999.9999999999991 1 -4.4e-16 3.8999999999999998e-16 
1 16500.000000000007 -2400.0000000000014 -19500.000000000004 -2.2e-16 1 -3.2999999999999999e-16 
1 16500.000000000007 -2400.0000000000018 -16500.000000000004 3.2999999999999999e-16 1.1e-16 -1 
1 96500.000000000029 599.99999999999488 -96500.000000000015 -3.1000000000000001e-16 0.95127837963214312 0.30833333333333307 
1 96500.000000000029 6307.6702777928558 -94650.000000000015 -2.2e-16 1 -3.2999999999999999e-16 
1 96500.000000000029 7307.6702777928567 -94650.000000000015 -7.0000000000000003e-17 0.91158524248749628 -0.41111111111111137 
1 16500.000000000007 599.99999999999932 -16500.000000000004 -3.1000000000000001e-16 0.95127837963214312 0.30833333333333313 
1 -80000 6307.6702777928958 1849.9999999999659 1 -4.4e-16 3.8999999999999998e-16 
1 16500.000000000004 6307.6702777928595 -14650.000000000005 -2.2e-16 1 -3.2999999999999999e-16 
1 16500.000000000004 7307.6702777928604 -14650.000000000005 -7.0000000000000003e-17 0.91158524248749639 -0.41111111111111137 
1 -80000 7307.6702777928958 1849.9999999999652 1 -4.4e-16 3.8999999999999998e-16 
1 -80000 6307.6702777928958 1849.9999999999659 1 -4.4e-16 3.8999999999999998e-16 
1 -80000 600.00000000003558 -3.1419310000000002e-11 1 -4.4e-16 3.8999999999999998e-16 
1 -80000 7307.6702777928958 1849.9999999999652 1 -4.4e-16 3.8999999999999998e-16 
1 -80000 11409.803868986632 -3.7419960000000001e-11 1 -4.4e-16 3.8999999999999998e-16 
Polygon3D 0
PolygonOnTriangulations 140
2 1 2 
p 715.266339781645 1 0 2000 
2 1 4 
p 715.266339781645 1 0 2000 
2 2 3 
p 715.266339781645 1 0 15000 
2 1 2 
p 715.266339781645 1 0 15000 
2 4 3 
p 715.266339781645 1 0 2000 
2 1 4 
p 715.266339781645 1 0 2000 
2 1 4 
p 715.266339781645 1 0 15000 
2 1 2 
p 715.266339781645 1 0 15000 
2 1 2 
p 715.266339781645 1 0 2000 
2 2 3 
p 715.266339781645 1 0 2000 
2 2 3 
p 715.266339781645 1 0 15000 
2 4 3 
p 715.266339781645 1 0 15000 
2 4 3 
p 715.266339781645 1 0 2000 
2 2 3 
p 715.266339781645 1 0 2000 
2 1 4 
p 715.266339781645 1 0 15000 
2 4 3 
p 715.266339781645 1 0 15000 
2 1 2 
p 715.266339781645 1 0 8000 
2 1 4 
p 715.266339781645 1 0 8000 
2 4 3 
p 715.266339781645 1 0 8000 
2 1 4 
p 715.266339781645 1 0 8000 
2 1 2 
p 715.266339781645 1 0 8000 
2 2 3 
p 715.266339781645 1 0 8000 
2 4 3 
p 715.266339781645 1 0 8000 
2 2 3 
p 715.266339781645 1 0 8000 
2 1 2 
p 715.266339781645 1 0 6000 
2 1 2 
p 715.266339781645 1 0 6000 
2 2 3 
p 715.266339781645 1 0 79000 
2 1 4 
p 715.266339781645 1 0 79000 
2 4 3 
p 715.266339781645 1 0 6000 
2 1 2 
p 715.266339781645 1 0 6000 
2 1 2 
p 715.266339781645 1 0 6000 
2 1 4 
p 715.266339781645 1 0 79000 
2 1 8 
p 715.266339781645 1 0 79000 
2 2 3 
p 715.266339781645 1 0 1000 
2 1 2 
p 715.266339781645 1 0 1000 
2 3 4 
p 715.266339781645 1 0 4500 
2 1 2 
p 715.266339781645 1 0 4500 
2 5 4 
p 715.266339781645 1 0 80000 
2 1 2 
p 715.266339781645 1 0 80000 
2 6 5 
p 715.266339781645 1 0 80000 
2 1 3 
p 715.266339781645 1 0 80000 
2 7 6 
p 715.266339781645 1 0 170809.803868987 
2 1 3 
p 715.266339781645 1 0 170809.803868987 
2 8 7 
p 715.266339781645 1 0 80000 
2 1 3 
p 715.266339781645 1 0 80000 
2 1 8 
p 715.266339781645 1 0 80000 
2 1 2 
p 715.266339781645 1 0 80000 
2 2 3 
p 715.266339781645 1 0 79000 
2 1 4 
p 715.266339781645 1 0 79000 
2 4 3 
p 715.266339781645 1 0 1000 
2 2 3 
p 715.266339781645 1 0 1000 
2 1 2 
p 715.266339781645 1 0 1000 
2 3 4 
p 715.266339781645 1 0 4500 
2 4 3 
p 715.266339781645 1 0 4500 
2 1 2 
p 715.266339781645 1 0 4500 
2 5 4 
p 715.266339781645 1 0 3000 
2 4 3 
p 715.266339781645 1 0 3000 
2 4 1 
p 715.266339781645 1 0 3000 
2 6 5 
p 715.266339781645 1 0 3000 
2 1 3 
p 715.266339781645 1 0 3000 
2 7 6 
p 715.266339781645 1 0 16809.8038689866 
2 1 3 
p 715.266339781645 1 0 16809.8038689866 
2 8 7 
p 715.266339781645 1 0 3000 
2 1 3 
p 715.266339781645 1 0 3000 
2 1 8 
p 715.266339781645 1 0 3000 
2 8 7 
p 715.266339781645 1 0 3000 
2 1 2 
p 715.266339781645 1 0 3000 
2 2 3 
p 715.266339781645 1 0 176500 
2 1 2 
p 715.266339781645 1 0 176500 
2 4 3 
p 715.266339781645 1 0 80000 
2 1 8 
p 715.266339781645 1 0 80000 
2 5 4 
p 715.266339781645 1 95500 176500 
2 1 4 
p 715.266339781645 1 95500 176500 
2 5 6 
p 715.266339781645 1 0 3000 
2 1 8 
p 715.266339781645 1 0 3000 
2 4 3 
p 715.266339781645 1 0 3000 
2 7 6 
p 715.266339781645 1 0 16500 
2 1 2 
p 715.266339781645 1 0 16500 
2 2 3 
p 715.266339781645 1 0 16500 
2 2 3 
p 715.266339781645 1 0 79000 
2 2 3 
p 715.266339781645 1 0 79000 
2 4 5 
p 715.266339781645 1 0 16500 
2 3 4 
p 715.266339781645 1 0 16500 
2 4 3 
p 715.266339781645 1 0 16500 
2 5 6 
p 715.266339781645 1 0 3000 
2 5 4 
p 715.266339781645 1 0 3000 
2 3 2 
p 715.266339781645 1 0 3000 
2 6 7 
p 715.266339781645 1 95500 176500 
2 2 3 
p 715.266339781645 1 95500 176500 
2 8 7 
p 715.266339781645 1 0 80000 
2 5 4 
p 715.266339781645 1 0 80000 
2 1 8 
p 715.266339781645 1 0 176500 
2 3 4 
p 715.266339781645 1 0 176500 
2 1 2 
p 715.266339781645 1 0 176500 
2 3 4 
p 715.266339781645 1 0 176500 
2 2 4 
p 715.266339781645 1 0 80000 
2 6 5 
p 715.266339781645 1 0 80000 
2 1 2 
p 715.266339781645 1 0 176500 
2 3 4 
p 715.266339781645 1 0 176500 
2 2 4 
p 715.266339781645 1 0 170809.803868987 
2 7 6 
p 715.266339781645 1 0 170809.803868987 
2 2 4 
p 715.266339781645 1 0 80000 
2 8 7 
p 715.266339781645 1 0 80000 
2 1 2 
p 715.266339781645 1 0 16500 
2 3 4 
p 715.266339781645 1 0 16500 
2 2 4 
p 715.266339781645 1 0 3000 
2 6 5 
p 715.266339781645 1 0 3000 
2 1 2 
p 715.266339781645 1 0 16500 
2 3 4 
p 715.266339781645 1 0 16500 
2 2 4 
p 715.266339781645 1 0 16809.8038689866 
2 7 6 
p 715.266339781645 1 0 16809.8038689866 
2 2 4 
p 715.266339781645 1 0 3000 
2 8 7 
p 715.266339781645 1 0 3000 
2 1 2 
p 715.266339781645 1 0 6000 
2 4 3 
p 715.266339781645 1 0 6000 
2 2 3 
p 715.266339781645 1 0 1000 
2 4 3 
p 715.266339781645 1 0 1000 
2 3 4 
p 715.266339781645 1 0 4500 
2 4 3 
p 715.266339781645 1 0 4500 
2 1 2 
p 715.266339781645 1 0 6000 
2 1 2 
p 715.266339781645 1 0 6000 
2 4 3 
p 715.266339781645 1 0 6000 
2 2 3 
p 715.266339781645 1 95500 176500 
2 1 4 
p 715.266339781645 1 95500 176500 
2 2 3 
p 715.266339781645 1 0 1000 
2 1 2 
p 715.266339781645 1 0 1000 
2 4 3 
p 715.266339781645 1 0 1000 
2 3 4 
p 715.266339781645 1 0 4500 
2 1 2 
p 715.266339781645 1 0 4500 
2 4 3 
p 715.266339781645 1 0 4500 
2 1 4 
p 715.266339781645 1 95500 176500 
2 2 3 
p 715.266339781645 1 95500 176500 
2 2 3 
p 715.266339781645 1 79000 95500 
2 1 4 
p 715.266339781645 1 79000 95500 
2 1 4 
p 715.266339781645 1 79000 95500 
2 1 4 
p 715.266339781645 1 79000 95500 
2 2 3 
p 715.266339781645 1 79000 95500 
2 1 4 
p 715.266339781645 1 79000 95500 
2 2 3 
p 715.266339781645 1 79000 95500 
2 1 2 
p 715.266339781645 1 79000 95500 
Surfaces 29
1 0 0 0 1 0 0 0 0 1 0 -1 0 
1 8000 0 0 1 0 0 0 0 1 0 -1 0 
1 0 0 0 0 1 0 0 0 1 1 0 0 
1 0 15000 0 0 1 0 0 0 1 1 0 0 
1 0 0 0 0 0 1 1 0 0 0 1 0 
1 0 0 2000 0 0 1 1 0 0 0 1 0 
1 -80000 600.00000000003558 -3.1419310000000002e-11 -5.1e-16 -0.30833333333333285 0.95127837963214323 4.0000000000000003e-17 0.95127837963214323 0.30833333333333285 -1 1.9530113518528544e-16 -4.7281864027905965e-16 
1 40077.980451384421 -80000.000000000015 6006.0737724511509 -1.1e-16 -1 4.4e-16 -1 1.1000000000000005e-16 1.1e-16 -1.1000000000000005e-16 -4.4e-16 -1 
1 -80000 6307.6702777928958 1849.9999999999659 -3.8999999999999998e-16 5.6000000000000003e-16 1 2.2e-16 1 -5.5999999999999993e-16 -1 2.1999999999999978e-16 -3.9000000000000008e-16 
1 -1187.4756762036145 6.5918000000000002e-13 6019.5044787444549 -1.1e-16 -1 4.4e-16 -1 1.1000000000000005e-16 1.1e-16 -1.1000000000000005e-16 -4.4e-16 -1 
1 -80000 600.00000000003558 -3.1419310000000002e-11 3.8999999999999998e-16 -5.6000000000000003e-16 -1 -2.2e-16 -1 5.5999999999999993e-16 -1 2.1999999999999978e-16 -3.9000000000000008e-16 
1 -80000 7307.6702777928958 1849.9999999999652 -1.7e-16 0.4111111111111117 0.91158524248749628 4.2999999999999999e-16 0.91158524248749628 -0.4111111111111117 -1 3.2209276538073437e-16 -3.3174726900065233e-16 
1 -79999.999999999985 91409.803868986637 -8.1828880000000003e-11 3.8999999999999998e-16 -5.6000000000000003e-16 -1 -2.2e-16 -1 5.5999999999999993e-16 -1 2.1999999999999978e-16 -3.9000000000000008e-16 
1 -79999.999999999927 91409.803868986608 -80000.000000000116 -4.4e-16 -1 3.2999999999999999e-16 -5.6000000000000003e-16 3.3000000000000023e-16 1 -1 4.399999999999998e-16 -5.6000000000000013e-16 
1 -79999.999999999971 -79400.000000000015 -80000.000000000015 -3.8999999999999998e-16 5.6000000000000003e-16 1 2.2e-16 1 -5.5999999999999993e-16 -1 2.1999999999999978e-16 -3.9000000000000008e-16 
1 -80000.000000000015 -79399.999999999985 1.298961e-11 4.4e-16 1 -3.2999999999999999e-16 5.6000000000000003e-16 -3.3000000000000023e-16 -1 -1 4.399999999999998e-16 -5.6000000000000013e-16 
1 4.8649500000000002e-12 14409.803868986595 -3000.0000000000086 -4.4e-16 -1 3.2999999999999999e-16 -5.6000000000000003e-16 3.3000000000000023e-16 1 -1 4.399999999999998e-16 -5.6000000000000013e-16 
1 1.1324300000000001e-12 -2400.0000000000014 -2999.9999999999991 -3.8999999999999998e-16 5.6000000000000003e-16 1 2.2e-16 1 -5.5999999999999993e-16 -1 2.1999999999999978e-16 -3.9000000000000008e-16 
1 -5.3291e-13 -2400.0000000000005 1.3322699999999999e-12 4.4e-16 1 -3.2999999999999999e-16 5.6000000000000003e-16 -3.3000000000000023e-16 -1 -1 4.399999999999998e-16 -5.6000000000000013e-16 
1 -136422.01954861559 96500.000000000087 6006.0737724510627 -1.1e-16 -1 4.4e-16 -1 1.1000000000000005e-16 1.1e-16 -1.1000000000000005e-16 -4.4e-16 -1 
1 -80000 600.00000000003558 -3.1419310000000002e-11 -5.1e-16 -0.30833333333333285 0.95127837963214323 4.0000000000000003e-17 0.95127837963214323 0.30833333333333285 -1 1.9530113518528544e-16 -4.7281864027905965e-16 
1 -17687.475676203616 16500.000000000011 6019.5044787444467 -1.1e-16 -1 4.4e-16 -1 1.1000000000000005e-16 1.1e-16 -1.1000000000000005e-16 -4.4e-16 -1 
1 -80000 7307.6702777928958 1849.9999999999652 -1.7e-16 0.4111111111111117 0.91158524248749628 4.2999999999999999e-16 0.91158524248749628 -0.4111111111111117 -1 3.2209276538073437e-16 -3.3174726900065233e-16 
1 -80000 6307.6702777928958 1849.9999999999659 -3.8999999999999998e-16 5.6000000000000003e-16 1 2.2e-16 1 -5.5999999999999993e-16 -1 2.1999999999999978e-16 -3.9000000000000008e-16 
1 -80000 600.00000000003558 -3.1419310000000002e-11 -5.1e-16 -0.30833333333333285 0.95127837963214323 4.0000000000000003e-17 0.95127837963214323 0.30833333333333285 -1 1.9530113518528544e-16 -4.7281864027905965e-16 
1 -80000 6307.6702777928958 1849.9999999999659 -3.8999999999999998e-16 5.6000000000000003e-16 1 2.2e-16 1 -5.5999999999999993e-16 -1 2.1999999999999978e-16 -3.9000000000000008e-16 
1 -80000 600.00000000003558 -3.1419310000000002e-11 3.8999999999999998e-16 -5.6000000000000003e-16 -1 -2.2e-16 -1 5.5999999999999993e-16 -1 2.1999999999999978e-16 -3.9000000000000008e-16 
1 -80000 7307.6702777928958 1849.9999999999652 -1.7e-16 0.4111111111111117 0.91158524248749628 4.2999999999999999e-16 0.91158524248749628 -0.4111111111111117 -1 3.2209276538073437e-16 -3.3174726900065233e-16 
1 -79999.999999999985 91409.803868986637 -8.1828880000000003e-11 3.8999999999999998e-16 -5.6000000000000003e-16 -1 -2.2e-16 -1 5.5999999999999993e-16 -1 2.1999999999999978e-16 -3.9000000000000008e-16 
Triangulations 29
4 2 1 0
0 0 0 0 0 2000 0 15000 2000 0 15000 0 0 0 2000 0 2000 -15000 0 -15000 2 4 3 2 1 4 
4 2 1 0
0 0 0 8000 0 0 8000 0 2000 0 0 2000 0 0 0 8000 2000 8000 2000 0 3 2 1 3 1 4 
4 2 1 0
0 0 2000 0 15000 2000 8000 15000 2000 8000 0 2000 0 0 0 15000 8000 15000 8000 0 3 2 1 3 1 4 
4 2 1 0
0 15000 0 8000 15000 0 8000 15000 2000 0 15000 2000 0 0 0 8000 2000 8000 2000 0 3 2 1 3 1 4 
4 2 1 0
0 0 0 0 15000 0 8000 15000 0 8000 0 0 0 0 0 15000 8000 15000 8000 0 3 2 1 3 1 4 
4 2 1 0
8000 0 0 8000 0 2000 8000 15000 2000 8000 15000 0 0 0 2000 0 2000 -15000 0 -15000 2 4 3 2 1 4 
4 2 1 2.27373675443232e-12
-75500 600.000000000044 -3.1486e-11 -75500 6307.6702777929 1849.99999999997 3500 6307.67027779286 1850 3500 600 -4e-13 8.41282599139959e-12 0 6000.00000000001 0 5999.99999999998 -79000 -2.1032064978499e-11 -79000 2 4 3 2 1 4 
8 6 1 1.57337399138762e-11
80000 -80000 600.000000000067 81850 -80000 6307.67027779293 81850 -80000 7307.67027779293 80000 -80000 11409.8038689867 79999.9999999999 -80000 91409.8038689867 -1.01863406598568e-10 -80000 91409.8038689867 1.45519152283669e-11 -80000 -79400 80000 -80000.0000000001 -79399.9999999999 -39922.0195486156 5406.07377245108 -41772.0195486156 -301.596505341775 -41772.0195486156 -1301.59650534177 -39922.0195486155 -5403.73009653551 -39922.0195486155 -85403.7300965355 40077.9804513845 -85403.7300965355 40077.9804513844 85406.0737724511 -39922.0195486156 85406.0737724511 6 4 5 2 3 4 1 2 4 7 8 1 7 4 6 7 1 4 
4 2 1 7.95807864051314e-13
-75500 6307.6702777929 1849.99999999997 -75500 7307.6702777929 1849.99999999996 3500 7307.67027779286 1850 3500 6307.67027779286 1850 9.09494701772928e-12 0 1000.00000000001 0 999.999999999981 -79000 -1.90993887372315e-11 -79000 2 4 3 2 1 4 
8 6 1 2.81245704101206e-12
3500 600 -4e-13 3500 6307.67027779286 1850 3500 7307.67027779286 1850 3500 11409.8038689866 -7.593e-12 3500.00000000001 14409.8038689866 -9.599e-12 3500.00000000001 14409.8038689866 -3000.00000000001 3500 -2400 -3000 3500 -2400 1.599e-12 -1187.47567620361 5419.50447874445 -3037.47567620361 -288.165799048405 -3037.47567620361 -1288.1657990484 -1187.47567620361 -5390.29939024214 -1187.4756762036 -8390.29939024214 1812.5243237964 -8390.29939024214 1812.52432379638 8419.50447874446 -1187.47567620362 8419.50447874445 6 4 5 2 3 4 1 2 4 7 8 1 7 4 6 7 1 4 
4 2 1 9.18333536299287e-13
3500 600 -4e-13 3500 6307.67027779286 1850 20000 6307.67027779285 1850 20000 599.999999999991 6.012e-12 -2.1032064978499e-11 -79000 5999.99999999998 -79000 5999.99999999997 -95500 -2.71711542154662e-11 -95500 1 4 3 2 1 3 
8 6 1 1.17447554433345e-11
-75500 600.000000000044 -3.1486e-11 -75500 -79400 2.1805e-11 101000 -79400.0000000001 9.0389e-11 101000 599.999999999947 3.7098e-11 20000 599.999999999991 6.012e-12 20000 -2400.00000000001 8.01e-12 3500 -2400 1.599e-12 3500 600 -4e-13 -8.86757334228605e-12 0 80000 0 80000.0000000001 -176500 5.01358954352327e-11 -176500 2.35331754083745e-11 -95500 3000.00000000002 -95500 3000.00000000002 -79000 1.80762071977369e-11 -79000 6 4 3 6 5 4 1 8 7 2 7 6 2 6 3 2 1 7 
4 2 1 2.27373675443232e-12
-75500 7307.6702777929 1849.99999999996 -75500 11409.8038689866 -3.8687e-11 3500 11409.8038689866 -7.593e-12 3500 7307.67027779286 1850 9.09494701772928e-12 0 4500.00000000001 0 4499.99999999999 -79000 -1.09139364212751e-11 -79000 1 4 3 2 1 3 
8 6 1 1.2418099934452e-11
-75500 91409.8038689867 -9.1977e-11 -75500 11409.8038689866 -3.8687e-11 3500 11409.8038689866 -7.593e-12 3500.00000000001 14409.8038689866 -9.599e-12 20000 14409.8038689866 -3.187e-12 20000 11409.8038689866 -1.182e-12 101000 11409.8038689865 2.9897e-11 101000 91409.8038689865 -2.3393e-11 -1.45519152283669e-11 0 80000 0 80000 -79000 77000 -79000 77000 -95500 80000 -95500 80000.0000000001 -176500 5.82076609134674e-11 -176500 5 8 7 6 5 7 1 5 4 1 8 5 2 4 3 2 1 4 
4 2 1 1.45519152283669e-11
-79999.9999999999 91409.8038689866 -80000.0000000001 96500.0000000001 91409.8038689865 -80000 -80000 91409.8038689867 -9.1977e-11 96500 91409.8038689865 -2.3393e-11 1.45519152283669e-11 0 -1.45519152283669e-11 -176500 80000 0 80000 -176500 1 2 4 3 1 4 
4 2 1 2.42531920472781e-11
-80000 -79400 -80000 96500 -79400.0000000001 -79999.9999999999 -79999.9999999999 91409.8038689866 -80000.0000000001 96500.0000000001 91409.8038689865 -80000 0 0 -7.27595761418343e-11 -176500 170809.803868987 0 170809.803868987 -176500 1 2 4 3 1 4 
4 2 1 9.70127681891125e-12
-80000 -79400 2.1805e-11 96500 -79400.0000000001 9.0389e-11 -80000 -79400 -80000 96500 -79400.0000000001 -79999.9999999999 -8.81539000000002e-12 0 2.144061e-11 -176500 80000 0 80000 -176500 3 1 2 3 2 4 
4 2 1 6.82121026329697e-13
3500 6307.67027779286 1850 3500 7307.67027779286 1850 20000 7307.67027779285 1850 20000 6307.67027779285 1850 -1.90993887372315e-11 -79000 999.999999999981 -79000 999.999999999975 -95500 -2.45563569478691e-11 -95500 2 4 3 2 1 4 
4 2 1 2.77835838684267e-12
3500 7307.67027779286 1850 3500 11409.8038689866 -7.593e-12 20000 11409.8038689866 -1.182e-12 20000 7307.67027779285 1850 -1.09139364212751e-11 -79000 4499.99999999999 -79000 4499.99999999999 -95500 -1.54614099301398e-11 -95500 1 4 3 2 1 3 
4 2 1 4.58927951590745e-12
3500 11409.8038689866 -7.593e-12 20000 11409.8038689866 -1.182e-12 20000 14409.8038689866 -3.187e-12 3500.00000000001 14409.8038689866 -9.599e-12 80000 -79000 80000 -95500 77000 -95500 77000 -79000 1 3 2 1 4 3 
4 2 1 1.2126596023639e-12
3500.00000000001 14409.8038689866 -3000.00000000001 20000 14409.8038689866 -3000 3500.00000000001 14409.8038689866 -9.599e-12 20000 14409.8038689866 -3.187e-12 -1.81898940354586e-12 0 -4.54747350886464e-12 -16500 3000 0 3000 -16500 1 2 4 3 1 4 
4 2 1 2.03369197834017e-12
9.09494701772928e-13 -2400 -3000 16500 -2400.00000000001 -2999.99999999999 6.3664629124105e-12 14409.8038689866 -3000.00000000001 16500 14409.8038689866 -3000 -4.54747350886464e-13 0 -5.91171556152403e-12 -16500 16809.8038689866 0 16809.8038689866 -16500 4 1 2 3 1 4 
4 2 1 1.51582450295488e-12
3500 -2400 1.599e-12 20000 -2400.00000000001 8.01e-12 3500 -2400 -3000 20000 -2400.00000000001 -2999.99999999999 -2.6673e-13 0 2.56227e-12 -16500 3000 0 3000 -16500 3 1 2 3 2 4 
4 2 1 4.06309999999984e-13
3500 600 -4e-13 3500 -2400 1.599e-12 20000 -2400.00000000001 8.01e-12 20000 599.999999999991 6.012e-12 1.80762071977369e-11 -79000 3000.00000000002 -79000 3000.00000000002 -95500 2.35331754083745e-11 -95500 2 4 3 2 1 4 
8 6 1 4.70780201203952e-11
-96500 96500 599.99999999992 -94650 96500 6307.67027779278 -94650 96500 7307.67027779278 -96500 96500 11409.8038689865 -96500 96500.0000000001 91409.8038689865 -176500 96500.0000000001 91409.8038689865 -176500 96500.0000000001 -79400.0000000001 -96499.9999999999 96500 -79400.0000000001 -39922.0195486156 5406.07377245114 -41772.0195486156 -301.596505341717 -41772.0195486156 -1301.59650534172 -39922.0195486156 -5403.73009653545 -39922.0195486155 -85403.7300965355 40077.9804513844 -85403.7300965354 40077.9804513843 85406.0737724512 -39922.0195486157 85406.0737724511 6 4 5 2 3 4 1 2 4 7 8 1 7 4 6 7 1 4 
4 2 1 1.70530256582424e-12
20000 599.999999999991 6.012e-12 20000 6307.67027779285 1850 101000 6307.67027779281 1850.00000000003 101000 599.999999999947 3.7098e-11 -2.71711542154662e-11 -95500 5999.99999999997 -95500 5999.99999999994 -176500 -5.65023583476432e-11 -176500 1 4 3 2 1 3 
8 6 1 4.83403064787792e-12
20000 599.999999999991 6.012e-12 20000 6307.67027779285 1850 20000 7307.67027779285 1850 20000 11409.8038689866 -1.182e-12 20000 14409.8038689866 -3.187e-12 20000 14409.8038689866 -3000 20000 -2400.00000000001 -2999.99999999999 20000 -2400.00000000001 8.01e-12 -1187.47567620362 5419.50447874446 -3037.47567620362 -288.165799048399 -3037.47567620362 -1288.1657990484 -1187.47567620362 -5390.29939024213 -1187.47567620361 -8390.29939024213 1812.52432379639 -8390.29939024214 1812.52432379638 8419.50447874446 -1187.47567620362 8419.50447874446 4 5 6 2 3 4 1 2 4 7 8 1 7 4 6 7 1 4 
4 2 1 3.98366150752568e-12
20000 7307.67027779285 1850 20000 11409.8038689866 -1.182e-12 101000 11409.8038689865 2.9897e-11 101000 7307.67027779281 1850.00000000003 -1.54614099301398e-11 -95500 4499.99999999999 -95500 4499.99999999997 -176500 -3.27418092638254e-11 -176500 2 4 3 2 1 4 
4 2 1 9.85285926920671e-13
20000 6307.67027779285 1850 20000 7307.67027779285 1850 101000 7307.67027779281 1850.00000000003 101000 6307.67027779281 1850.00000000003 -2.45563569478691e-11 -95500 999.999999999975 -95500 999.999999999949 -176500 -5.0931703299284e-11 -176500 2 4 3 2 1 4 

TShapes 171
Ve
1e-07
7500 -1500 -300
0 0

0101101
*
Ve
1e-07
7500 -1500 -2300
0 0

0101101
*
Ed
 1e-07 1 1 0
1  1 0 0 2000
6  1 1 0
6  2 2 0
0

0101000
-171 4 +170 4 *
Ve
1e-07
7500 13500 -300
0 0

0101101
*
Ed
 1e-07 1 1 0
1  2 0 0 15000
6  3 1 0
6  4 3 0
0

0101000
-168 4 +171 4 *
Ve
1e-07
7500 13500 -2300
0 0

0101101
*
Ed
 1e-07 1 1 0
1  3 0 0 2000
6  5 1 0
6  6 4 0
0

0101000
-168 4 +166 4 *
Ed
 1e-07 1 1 0
1  4 0 0 15000
6  7 1 0
6  8 5 0
0

0101000
-166 4 +170 4 *
Wi

0101100
-169 0 -167 0 +165 0 +164 0 *
Fa
0  1e-07 1 0
2  1
0101000
+163 0 *
Ve
1e-07
15500 -1500 -300
0 0

0101101
*
Ve
1e-07
15500 -1500 -2300
0 0

0101101
*
Ed
 1e-07 1 1 0
1  5 0 0 2000
6  9 6 0
6  10 2 0
0

0101000
-161 4 +160 4 *
Ve
1e-07
15500 13500 -300
0 0

0101101
*
Ed
 1e-07 1 1 0
1  6 0 0 15000
6  11 6 0
6  12 3 0
0

0101000
-158 4 +161 4 *
Ve
1e-07
15500 13500 -2300
0 0

0101101
*
Ed
 1e-07 1 1 0
1  7 0 0 2000
6  13 6 0
6  14 4 0
0

0101000
-158 4 +156 4 *
Ed
 1e-07 1 1 0
1  8 0 0 15000
6  15 6 0
6  16 5 0
0

0101000
-156 4 +160 4 *
Wi

0101100
-159 0 -157 0 +155 0 +154 0 *
Fa
0  1e-07 2 0
2  6
0101000
+153 0 *
Ed
 1e-07 1 1 0
1  9 0 0 8000
6  17 2 0
6  18 5 0
0

0101000
-160 4 +170 4 *
Ed
 1e-07 1 1 0
1  10 0 0 8000
6  19 2 0
6  20 3 0
0

0101000
-161 4 +171 4 *
Wi

0101100
-151 0 -159 0 +150 0 +169 0 *
Fa
0  1e-07 3 0
2  2
0101000
+149 0 *
Ed
 1e-07 1 1 0
1  11 0 0 8000
6  21 4 0
6  22 5 0
0

0101000
-156 4 +166 4 *
Ed
 1e-07 1 1 0
1  12 0 0 8000
6  23 4 0
6  24 3 0
0

0101000
-158 4 +168 4 *
Wi

0101100
-147 0 -155 0 +146 0 +165 0 *
Fa
0  1e-07 4 0
2  4
0101000
+145 0 *
Wi

0101100
-164 0 -147 0 +154 0 +151 0 *
Fa
0  1e-07 5 0
2  5
0101000
+143 0 *
Wi

0101100
-167 0 -146 0 +157 0 +150 0 *
Fa
0  1e-07 6 0
2  3
0101000
+141 0 *
Sh

0101100
-162 0 +152 0 -148 0 +144 0 -142 0 +140 0 *
So

0100000
+139 0 *
Ve
1e-07
-75500 600.000000000044 -3.1486e-11
0 0

0101101
*
Ve
1e-07
-75500 6307.6702777929 1849.99999999997
0 0

0101101
*
Ed
 1e-07 1 1 0
1  13 0 0 6000
6  25 7 10
6  26 8 11
0

0101000
+137 12 -136 12 *
Ve
2.12133034355964e-07
3500 6307.67027779286 1850
0 0

0101101
*
Ed
 1e-07 1 1 0
1  14 0 0 79000
6  27 7 13
6  28 9 13
0

0101000
+136 14 -134 14 *
Ve
2.12133034355964e-07
3500 600 -4e-13
0 0

0101101
*
Ed
 1.00001833145177e-07 1 1 0
1  15 0 0 6000
6  29 7 19
6  30 10 19
6  31 11 19
0

0101000
+132 20 -134 20 *
Ed
 1e-07 1 1 0
1  16 0 0 79000
6  32 7 13
6  33 12 13
0

0101000
+137 14 -132 14 *
Wi

0101100
-135 9 -133 5 +131 18 +130 5 *
Fa
0  1e-07 7 5
2  7
0101000
+129 0 *
Ve
1e-07
-75500 7307.6702777929 1849.99999999996
0 0

0101101
*
Ed
 1e-07 1 1 0
1  17 0 0 1000
6  34 8 11
6  35 9 10
0

0101000
+136 12 -127 12 *
Ve
1.00000909e-07
-75500 11409.8038689866 -3.8687e-11
0 0

0101101
*
Ed
 1e-07 1 1 0
1  18 0 0 4500
6  36 8 11
6  37 13 10
0

0101000
+127 12 -125 12 *
Ve
1e-07
-75500 91409.8038689867 -9.1977e-11
0 0

0101101
*
Ed
 1e-07 1 1 0
1  19 0 0 80000
6  38 8 11
6  39 14 10
0

0101000
+123 12 -125 12 *
Ve
1.00007276e-07
-75499.9999999999 91409.8038689866 -80000.0000000001
0 0

0101101
*
Ed
 1e-07 1 1 0
1  20 0 0 80000
6  40 8 11
6  41 15 22
0

0101000
+121 12 -123 12 *
Ve
1e-07
-75500 -79400 -80000
0 0

0101101
*
Ed
 1e-07 1 1 0
1  21 0 0 170809.803868987
6  42 8 11
6  43 16 22
0

0101000
+119 12 -121 12 *
Ve
1e-07
-75500 -79400 2.1805e-11
0 0

0101101
*
Ed
 1e-07 1 1 0
1  22 0 0 80000
6  44 8 11
6  45 17 22
0

0101000
+117 12 -119 12 *
Ed
 1e-07 1 1 0
1  23 0 0 80000
6  46 8 11
6  47 12 10
0

0101000
+137 12 -117 12 *
Wi

0101100
+135 0 +126 0 +124 0 -122 0 -120 0 -118 0 -116 0 -115 0 *
Fa
0  1e-07 8 0
2  8
0101000
+114 6 *
Ve
2.12133034355964e-07
3500 7307.67027779286 1850
0 0

0101101
*
Ed
 1e-07 1 1 0
1  24 0 0 79000
6  48 9 13
6  49 13 13
0

0101000
+127 14 -112 14 *
Ed
 1.0000250111043e-07 1 1 0
1  25 0 0 1000
6  50 9 19
6  51 10 19
6  52 18 19
0

0101000
+134 20 -112 20 *
Wi

0101100
-126 9 -111 5 +110 18 +133 5 *
Fa
0  1e-07 9 5
2  9
0101000
+109 0 *
Ve
2.12133034355964e-07
3500 11409.8038689866 -7.593e-12
0 0

0101101
*
Ed
 1.00004349264531e-07 1 1 0
1  26 0 0 4500
6  53 10 19
6  54 13 19
6  55 19 19
0

0101000
+112 20 -107 20 *
Ve
2.12133034355964e-07
3500.00000000001 14409.8038689866 -9.599e-12
0 0

0101101
*
Ed
 1.0000304195e-07 1 1 0
1  27 0 0 3000
6  56 10 19
6  57 14 19
6  58 20 19
0

0101000
+105 20 -107 20 *
Ve
1.00000909e-07
3500.00000000001 14409.8038689866 -3000.00000000001
0 0

0101101
*
Ed
 1e-07 1 1 0
1  28 0 0 3000
6  59 10 19
6  60 21 19
0

0101000
+103 20 -105 20 *
Ve
1e-07
3500 -2400 -3000
0 0

0101101
*
Ed
 1e-07 1 1 0
1  29 0 0 16809.8038689866
6  61 10 19
6  62 22 24
0

0101000
+101 20 -103 20 *
Ve
2.12133034355964e-07
3500 -2400 1.599e-12
0 0

0101101
*
Ed
 1e-07 1 1 0
1  30 0 0 3000
6  63 10 19
6  64 23 19
0

0101000
+99 20 -101 20 *
Ed
 1.0000035197e-07 1 1 0
1  31 0 0 3000
6  65 10 19
6  66 12 19
6  67 24 19
0

0101000
+132 20 -99 20 *
Wi

0101100
+131 18 +110 18 +106 18 -104 18 -102 18 -100 18 -98 18 -97 18 *
Fa
0  1e-07 10 23
2  10
0101000
+96 0 *
Ve
1e-07
101000 -79400.0000000001 9.0389e-11
0 0

0101101
*
Ed
 1e-07 1 1 0
1  32 0 0 176500
6  68 12 13
6  69 17 0
0

0101000
+117 14 -94 14 *
Ve
1e-07
101000 599.999999999947 3.7098e-11
0 0

0101101
*
Ed
 1e-07 1 1 0
1  33 0 0 80000
6  70 12 27
6  71 25 11
0

0101000
+92 28 -94 28 *
Ve
2.12133034355964e-07
20000 599.999999999991 6.012e-12
0 0

0101101
*
Ed
 1e-07 1 1 0
1  34 0 95500 176500
6  72 12 13
6  73 26 13
0

0101000
+90 14 -92 14 *
Ve
2.12133034355964e-07
20000 -2400.00000000001 8.01e-12
0 0

0101101
*
Ed
 1.00010096168807e-07 1 1 0
1  35 0 0 3000
6  74 12 31
6  75 27 31
6  76 24 31
0

0101000
+90 32 -88 32 *
Ed
 1.0000026158e-07 1 1 0
1  36 0 0 16500
6  77 12 33
6  78 23 33
6  79 24 33
0

0101000
+99 34 -88 34 *
Wi

0101100
-115 9 -93 5 +91 26 +89 5 -87 30 +86 17 +97 18 +130 5 *
Fa
0  1e-07 11 5
2  12
0101000
+85 0 *
Ed
 1.00000909e-07 1 1 0
1  37 0 0 79000
6  80 13 13
6  81 14 13
0

0101000
+125 14 -107 14 *
Wi

0101100
-124 9 -83 5 +106 18 +111 5 *
Fa
0  1e-07 12 5
2  13
0101000
+82 0 *
Ve
2.12133034355964e-07
20000 14409.8038689866 -3.187e-12
0 0

0101101
*
Ed
 1.0000010017e-07 1 1 0
1  38 0 0 16500
6  82 14 33
6  83 21 33
6  84 20 33
0

0101000
+105 34 -80 34 *
Ve
2.12133034355964e-07
20000 11409.8038689866 -1.182e-12
0 0

0101101
*
Ed
 1.00006444577614e-07 1 1 0
1  39 0 0 3000
6  85 14 31
6  86 27 31
6  87 20 31
0

0101000
+80 32 -78 32 *
Ve
1.00000909e-07
101000 11409.8038689865 2.9897e-11
0 0

0101101
*
Ed
 1.00000909e-07 1 1 0
1  40 0 95500 176500
6  88 14 13
6  89 28 13
0

0101000
+78 14 -76 14 *
Ve
1e-07
101000 91409.8038689865 -2.3393e-11
0 0

0101101
*
Ed
 1e-07 1 1 0
1  41 0 0 80000
6  90 14 27
6  91 25 11
0

0101000
+74 28 -76 28 *
Ed
 1e-07 1 1 0
1  42 0 0 176500
6  92 14 13
6  93 15 0
0

0101000
+123 14 -74 14 *
Wi

0101100
-122 9 -83 5 +104 18 -79 17 -77 30 -75 5 +73 26 +72 5 *
Fa
0  1e-07 13 5
2  14
0101000
+71 0 *
Ve
1.00007276e-07
101000 91409.8038689865 -80000
0 0

0101101
*
Ed
 1.00007276e-07 1 1 0
1  43 0 0 176500
6  94 15 0
6  95 16 0
0

0101000
+121 14 -69 14 *
Ed
 1e-07 1 1 0
1  44 0 0 80000
6  96 15 37
6  97 25 11
0

0101000
+69 28 -74 28 *
Wi

0101100
+68 0 -72 0 -120 35 +67 36 *
Fa
0  1e-07 14 0
2  15
0101000
+66 0 *
Ve
1e-07
101000 -79400.0000000001 -79999.9999999999
0 0

0101101
*
Ed
 1e-07 1 1 0
1  45 0 0 176500
6  98 16 0
6  99 17 0
0

0101000
+119 14 -64 14 *
Ed
 1e-07 1 1 0
1  46 0 0 170809.803868987
6  100 16 37
6  101 25 11
0

0101000
+64 28 -69 28 *
Wi

0101100
+63 0 -68 0 -118 35 +62 36 *
Fa
0  1e-07 15 0
2  16
0101000
+61 0 *
Ed
 1e-07 1 1 0
1  47 0 0 80000
6  102 17 37
6  103 25 11
0

0101000
+94 28 -64 28 *
Wi

0101100
+93 0 -63 0 -116 35 +59 36 *
Fa
0  1e-07 16 0
2  17
0101000
+58 0 *
Ve
1.00000909e-07
20000 14409.8038689866 -3000
0 0

0101101
*
Ed
 1.00000909e-07 1 1 0
1  48 0 0 16500
6  104 21 33
6  105 22 0
0

0101000
+103 34 -56 34 *
Ed
 1e-07 1 1 0
1  49 0 0 3000
6  106 21 31
6  107 27 31
0

0101000
+56 32 -80 32 *
Wi

0101100
+55 17 -79 17 -102 18 +54 30 *
Fa
0  1e-07 17 17
2  21
0101000
+53 0 *
Ve
1e-07
20000 -2400.00000000001 -2999.99999999999
0 0

0101101
*
Ed
 1e-07 1 1 0
1  50 0 0 16500
6  108 22 0
6  109 23 33
0

0101000
+101 34 -51 34 *
Ed
 1e-07 1 1 0
1  51 0 0 16809.8038689866
6  110 22 40
6  111 27 31
0

0101000
+51 32 -56 32 *
Wi

0101100
+50 0 -55 0 -100 38 +49 39 *
Fa
0  1e-07 18 0
2  22
0101000
+48 0 *
Ed
 1e-07 1 1 0
1  52 0 0 3000
6  112 23 31
6  113 27 31
0

0101000
+88 32 -51 32 *
Wi

0101100
+86 17 -50 17 -98 18 +46 30 *
Fa
0  1e-07 19 17
2  23
0101000
+45 0 *
Ve
1e-07
101000 6307.67027779281 1850.00000000003
0 0

0101101
*
Ed
 1e-07 1 1 0
1  53 0 0 6000
6  114 25 11
6  115 26 27
0

0101000
+92 28 -43 28 *
Ve
1e-07
101000 7307.67027779281 1850.00000000003
0 0

0101101
*
Ed
 1e-07 1 1 0
1  54 0 0 1000
6  116 25 11
6  117 29 27
0

0101000
+43 28 -41 28 *
Ed
 1e-07 1 1 0
1  55 0 0 4500
6  118 25 11
6  119 28 27
0

0101000
+41 28 -76 28 *
Wi

0101100
+42 0 +40 0 +39 0 -73 0 -67 0 -62 0 -59 0 -91 0 *
Fa
0  1e-07 20 0
2  25
0101000
+38 6 *
Ve
2.12133034355964e-07
20000 6307.67027779285 1850
0 0

0101101
*
Ed
 1.0001241221966e-07 1 1 0
1  56 0 0 6000
6  120 26 31
6  121 27 31
6  122 11 31
0

0101000
+90 32 -36 32 *
Ed
 1e-07 1 1 0
1  57 0 95500 176500
6  123 26 13
6  124 29 13
0

0101000
+36 14 -43 14 *
Wi

0101100
-35 30 -34 5 +42 26 +89 5 *
Fa
0  1e-07 21 5
2  26
0101000
+33 0 *
Ve
2.12133034355964e-07
20000 7307.67027779285 1850
0 0

0101101
*
Ed
 1.00008640199667e-07 1 1 0
1  58 0 0 1000
6  125 27 31
6  126 29 31
6  127 18 31
0

0101000
+36 32 -31 32 *
Ed
 1.00002033691978e-07 1 1 0
1  59 0 0 4500
6  128 27 31
6  129 28 31
6  130 19 31
0

0101000
+31 32 -78 32 *
Wi

0101100
+35 30 +30 30 +29 30 -77 30 -54 30 -49 30 -46 30 -87 30 *
Fa
0  1e-07 22 42
2  27
0101000
+28 0 *
Ed
 1e-07 1 1 0
1  60 0 95500 176500
6  131 28 13
6  132 29 13
0

0101000
+31 14 -41 14 *
Wi

0101100
-29 30 -75 5 +39 26 +26 5 *
Fa
0  1e-07 23 5
2  28
0101000
+25 0 *
Wi

0101100
-30 30 -26 5 +40 26 +34 5 *
Fa
0  1e-07 24 5
2  29
0101000
+23 0 *
Sh

0101100
+128 0 +113 21 +108 0 -95 0 -84 0 +81 0 -70 0 -65 5 -60 5 -57 5 
+52 0 +47 17 +44 0 -37 41 +32 0 +27 0 +24 0 +22 0 *
So

0100000
+21 0 *
Ed
 1.00001874971361e-07 1 1 0
1  61 0 79000 95500
6  133 11 13
6  134 18 13
0

0101000
+134 14 -36 14 *
Ed
 1.00000842388683e-07 1 1 0
1  62 0 79000 95500
6  135 11 13
6  136 24 13
0

0101000
+132 14 -90 14 *
Wi

0101100
-131 18 -19 5 +35 30 +18 5 *
Fa
0  1e-07 25 5
2  11
0101000
+17 0 *
Ed
 1.00001874971361e-07 1 1 0
1  63 0 79000 95500
6  137 18 13
6  138 19 13
0

0101000
+112 14 -31 14 *
Wi

0101100
-110 18 -15 5 +30 30 +19 5 *
Fa
0  1e-07 26 5
2  18
0101000
+14 0 *
Wi

0101100
-97 18 -86 17 +87 30 +18 5 *
Fa
0  1e-07 27 5
2  24
0101000
+12 0 *
Ed
 1.00003655988951e-07 1 1 0
1  64 0 79000 95500
6  139 19 13
6  140 20 13
0

0101000
+107 14 -78 14 *
Wi

0101100
-106 18 -10 5 +29 30 +15 5 *
Fa
0  1e-07 28 5
2  19
0101000
+9 0 *
Wi

0101100
-10 5 +77 30 +79 17 -104 18 *
Fa
0  1e-07 29 5
2  20
0101000
+7 0 *
Sh

0101100
+16 0 +95 0 +13 0 -27 0 -11 0 +8 0 -6 0 -52 0 -47 17 -44 0 
*
Sh

0101100
+162 2 +148 2 -140 2 -144 2 +142 2 -152 2 *
So

0100000
+5 0 +4 0 *
CS

0101000
+138 2 +20 0 +3 0 *
Co

1100000
+2 1 *

+1 0 